<?xml version="1.0" encoding="UTF-8" standalone="no"?>
<svg
   width="240px"
   height="324px"
   viewBox="0 0 240 324"
   version="1.1"
   id="svg57"
   sodipodi:docname="peep-46.svg"
   inkscape:version="1.1.1 (3bf5ae0d25, 2021-09-20)"
   xmlns:inkscape="http://www.inkscape.org/namespaces/inkscape"
   xmlns:sodipodi="http://sodipodi.sourceforge.net/DTD/sodipodi-0.dtd"
   xmlns:xlink="http://www.w3.org/1999/xlink"
   xmlns="http://www.w3.org/2000/svg"
   xmlns:svg="http://www.w3.org/2000/svg"
   xmlns:rdf="http://www.w3.org/1999/02/22-rdf-syntax-ns#"
   xmlns:cc="http://creativecommons.org/ns#"
   xmlns:dc="http://purl.org/dc/elements/1.1/">
  <defs
     id="defs61" />
  <sodipodi:namedview
     id="namedview59"
     pagecolor="#505050"
     bordercolor="#eeeeee"
     borderopacity="1"
     inkscape:pageshadow="0"
     inkscape:pageopacity="0"
     inkscape:pagecheckerboard="0"
     showgrid="false"
     inkscape:zoom="1.4142136"
     inkscape:cx="79.549513"
     inkscape:cy="186.32264"
     inkscape:window-width="1920"
     inkscape:window-height="1017"
     inkscape:window-x="-8"
     inkscape:window-y="-8"
     inkscape:window-maximized="1"
     inkscape:current-layer="svg57" />
  <!-- Generator: Sketch 62 (91390) - https://sketch.com -->
  <title
     id="title36">peep-46</title>
  <desc
     id="desc38">Created with Sketch.</desc>
  <g
     id="Introduction"
     stroke="none"
     stroke-width="1"
     fill="none"
     fill-rule="evenodd"
     transform="translate(-18.02225,0.80098888)" />
  <path
     style="fill:#ffffff;stroke-width:0.0500618"
     d=""
     id="path934" />
  <g
     id="g4999">
    <g
       id="variations"
       transform="matrix(-1,0,0,1,1829.7206,-1081.199)">
      <g
         id="images"
         transform="translate(126,110)">
        <g
           id="a-person/bust"
           transform="translate(1440,972)">
          <g
             id="body/Macbook"
             transform="translate(31.056338,135.05284)"
             fill-rule="evenodd">
            <path
               d="m 210.43977,44.271905 c -3.01677,0.296313 -6.03355,0.592204 -9.05033,0.888517 -14.44817,1.104305 -28.89063,3.41056 -43.22819,4.794693 -0.35698,-0.581214 -1.05572,-0.485472 -1.47995,-0.08158 -1.43067,-0.12533 -3.03412,-1.219279 -4.33007,-0.08137 -0.0421,-0.0059 -0.0842,-0.01289 -0.12668,-0.01691 -2.30747,-4.430537 -3.90246,-9.156118 -5.4505,-13.88804 -0.98804,-2.909236 -2.31741,-5.725479 -4.77397,-7.678778 -4.1924,-2.911351 -13.79829,-8.814999 -18.72114,-8.566873 -0.0816,-0.881754 -0.49254,-1.79056 -1.16717,-2.377691 1.48692,-2.535992 -4.45844,-4.190654 -4.87781,-3.896665 C 117.50275,4.894597 113.51887,-2.4633521 104.73438,-4.1505615 96.864534,-5.7910624 85.671056,-6.0666632 81.438475,2.1609924 80.973217,2.1085774 76.217355,2.0838074 75.757172,2.1353764 75.041732,1.228895 67.184792,9.8186108 70.405014,12.809006 41.615047,25.549625 25.245011,24.029407 17.276406,59.84673 c -1.077284,3.364697 -1.155743,7.04663 -2.2933,10.336298 -4.047112,9.45391 -7.3297198,19.520735 -8.1466709,29.807577 -1.9731178,0.505765 -2.200037,3.986065 0.085438,4.489505 0.8729936,0.19254 1.603026,0.45546 2.2395839,0.95403 -0.4976148,8.42992 1.540428,27.68689 2.824541,27.6275 2.618346,8.33629 14.297555,10.689 22.566039,7.75948 -1.425382,2.68267 0,4.3694 0,5.80276 29.752206,1.12608 62.283101,0.47755 92.027063,2.02189 3.80475,-0.0541 7.80661,0.9348 11.55934,0.36563 2.28864,-0.54887 2.29245,-4.1488 -0.029,-4.59391 l 10.14355,-2.20398 c -0.22671,-0.0856 4.18123,-3.01867 7.51269,-8.49962 3.10094,-6.13127 0.99047,-13.53229 2.39555,-20.20166 10.97417,-0.89782 22.12979,-1.28169 32.98384,-3.14094 1.47995,4.42969 7.88634,-0.86802 9.92269,-2.99906 -0.003,-0.003 -0.005,-0.007 -0.008,-0.01 0.9855,-0.26968 1.7758,-1.1937 1.80224,-2.28765 0.69112,-0.98785 0.8362,-2.38023 0.17341,-3.3349 3.03772,-17.535311 7.66873,-35.439217 9.3426,-53.139382 0.59172,-0.131037 1.14898,-0.390575 1.62143,-0.79045 l -0.0383,-0.03825 c 0.80045,-0.892744 0.9561,-2.433699 -0.37834,-3.192235 -1.07644,-0.612493 -1.97523,-0.422489 -3.14346,-0.307515 z"
               id="ðŸŽ¨-Background"
               fill="#ffffff" />
            <path
               d="m 81.986937,0.25013307 c 0.896408,-2.25362817 3.926619,-1.37758117 3.588802,0.98996473 -0.202183,1.4181605 -0.978591,2.916 -1.675985,4.1589511 -0.567888,1.0117339 -1.215634,1.9991625 -2.093874,2.7574873 1.563381,1.4591624 3.186127,2.8650648 4.850071,4.1999528 1.815634,1.456415 3.724859,2.798912 5.69831,4.032775 1.730493,1.082114 3.539155,2.040799 5.170352,3.275507 1.51669,1.147843 2.898377,2.528384 3.601477,4.330568 0.74899,1.919133 0.42349,3.90107 -0.12805,5.818908 l -0.0634,0.216833 c -0.56345,1.900039 -1.53887,4.190442 -0.18633,5.980579 0.68852,0.911343 1.6895,1.556807 2.5538,2.285331 0.76817,0.647577 1.48922,1.351797 2.15049,2.108219 1.4419,1.648955 2.61465,3.5044 3.35472,5.571828 l 0.0662,0.187824 c 0.63433,1.830169 1.09792,4.072188 0.24079,5.869053 -0.24591,0.515061 -1.03901,0.347671 -1.17676,-0.153863 -0.31141,-1.136219 -0.29514,-2.326121 -0.55627,-3.478403 -0.27169,-1.198356 -0.7238,-2.335844 -1.31429,-3.412039 -1.14251,-2.081962 -2.6898,-3.860359 -4.51786,-5.36387 l -0.54723,-0.44519 C 99.575824,38.009748 98.265557,36.767681 97.976091,34.83 c -0.309718,-2.073135 0.520564,-4.047992 1.054437,-6.010168 0.372042,-1.367437 0.493521,-2.678231 0.09148,-3.913996 -0.491197,0.802074 -1.161338,1.563358 -1.691408,2.242426 -1.055705,1.352853 -2.121338,2.697464 -3.184226,4.044611 -1.089718,1.381385 -2.152605,2.78454 -3.164788,4.224047 -0.452747,0.643984 -0.900634,1.291773 -1.347043,1.940195 -0.335704,0.487374 -0.803873,0.974325 -1.169789,1.471421 0.08894,0.265879 0.08218,0.572337 -0.07901,0.790028 -1.940492,2.622857 -4.701126,-2.849848 -5.421126,-4.232501 -1.466197,-2.81582 -2.557395,-5.807272 -4.028451,-8.622458 -1.524296,-2.918325 -3.26007,-5.758873 -5.194648,-8.423155 -1.170211,-1.611546 -2.481761,-3.125237 -3.552253,-4.787929 -2.521902,2.287655 -5.840493,3.821213 -8.888662,5.211898 -3.349095,1.52776 -6.828495,2.775829 -10.26227,4.101136 l -1.014315,0.394113 c -5.916496,2.309932 -11.977577,4.84767 -16.895317,8.950645 -5.778803,4.821534 -9.197535,11.541628 -11.742676,18.500548 -2.929859,8.011233 -5.353732,16.238677 -7.613239,24.460838 -1.156268,4.206927 -2.253381,8.432876 -3.284789,12.672352 -0.9088733,3.734982 -1.6622536,7.507162 -2.7143662,11.203679 2.1338032,-0.07545 4.5673942,0.750928 6.3891552,0.98954 8.302605,1.08719 16.49345,2.82026 24.332112,5.8208 0.96824,0.37071 1.248381,1.33806 1.037536,2.12217 0.55838,-0.15767 1.116338,-0.31745 1.674718,-0.47427 -0.611759,-0.93772 -0.319774,-2.61423 -0.271678,-3.65359 l 0.0029,-0.0715 c 0.04944,-1.38498 0.199648,-2.77144 0.297043,-4.153879 0.18546,-2.63531 0.426905,-5.251352 0.747931,-7.871563 l 0.08193,-0.655153 c 0.363803,-2.850693 0.632746,-5.718082 1.029718,-8.563914 l 0.0469,-0.325691 c -0.190353,-0.728102 -0.411972,-1.447327 -0.644578,-2.163381 -0.619859,-1.907437 -1.494718,-3.702858 -2.261408,-5.550271 -0.09042,-0.217479 0.219296,-0.342387 0.364014,-0.211984 1.29845,1.168556 2.329859,2.650967 3.15845,4.201433 0.01437,-0.07313 0.02704,-0.146466 0.04204,-0.219593 l 0.09455,-0.465562 c 0.233159,-1.135384 0.516762,-2.329962 1.212985,-3.250822 0.07415,-0.09785 0.220775,-0.118356 0.290915,0 0.666339,1.127977 0.740916,2.556493 0.843381,3.840024 0.115986,1.451976 0.130563,2.92234 0.11007,4.378332 -0.03993,2.845409 -0.240422,5.69885 -0.400141,8.539609 -0.156686,2.791614 -0.464397,5.547657 -0.860957,8.311827 l -0.07538,0.518388 c -0.193855,1.31567 -0.352561,2.64769 -0.608254,3.95436 l -0.07224,0.35571 c -0.13669,0.648 -0.220774,1.56166 -0.492887,2.32062 7.000986,-1.95351 14.012746,-3.86242 21.037817,-5.73773 5.077394,-1.355606 10.16007,-2.690917 15.240634,-4.034682 0.268098,-0.483358 0.601901,-0.934802 1.018521,-1.33827 1.372605,-1.329816 3.191619,-1.923076 4.86,-0.899507 0.135634,0.08348 0.147042,0.296102 0,0.376626 -0.319648,0.174787 -0.63993,0.354012 -0.954507,0.540846 l 3.050704,-0.826591 c 2.280211,-0.6182 4.587676,-1.390685 6.921549,-1.821628 4.298662,-2.122169 8.922045,-3.658263 13.450355,-5.176392 l 0.53361,-0.180565 c 2.31861,-0.790783 4.71686,-1.676057 7.11238,-2.114488 1.75373,-0.320829 3.81232,0.06636 4.51753,1.863687 0.89282,0.588611 1.73282,1.28036 2.54345,1.960697 0.58606,0.491601 1.14782,1.01427 1.71909,1.523201 l 0.10531,0.09249 c 0.46702,0.405365 0.83698,0.676853 0.95166,1.322076 0.0592,0.333299 -0.15254,0.783898 -0.56345,0.739726 -1.25726,-0.13463 -2.27958,-1.592524 -3.13226,-2.463076 -0.65873,-0.67294 -1.32274,-1.368705 -1.92401,-2.10822 -0.35049,0.19085 -0.83092,0.156611 -1.05401,-0.266089 -1.1569,-2.191492 -4.32613,-0.67294 -6.07965,-0.15323 l -2.51196,0.743791 c -1.2559,0.372427 -2.51131,0.746694 -3.76459,1.127505 -3.44451,1.046395 -6.87211,2.217487 -10.347891,3.178497 0.310986,0.341965 0.268098,0.950231 -0.322606,1.18166 -2.720704,1.067953 -5.705493,1.620211 -8.532042,2.352962 -1.784578,0.463069 -3.568099,0.928885 -5.350986,1.397449 -0.305704,0.495405 -0.525634,1.055906 -0.618169,1.708344 -0.340236,2.398941 0.315958,5.166791 0.955152,7.487011 l 0.09629,0.34618 c 0.525439,1.86543 1.298474,4.1522 2.907295,5.33013 0.392747,0.28723 0.892817,0.48716 1.396902,0.53239 3.149366,-1.62169 6.298521,-3.24317 9.449577,-4.86169 0.583732,-0.29991 1.123099,0.1061 1.254085,0.58882 1.111056,-0.18239 2.219573,-0.46983 3.229223,-0.81264 1.69648,-0.57635 3.02113,-1.67558 4.61155,-2.43581 3.07734,-1.47059 6.21991,0.3358 8.97518,1.70913 l 0.63502,0.31223 c 1.23556,0.59971 3.80607,1.75182 4.39895,0.11159 0.57339,-1.58682 -1.2395,-3.2827 -2.41035,-3.99685 -1.39563,-0.85153 -3.0207,-1.3072 -4.59803,-1.68679 -0.90063,-0.21684 -1.81225,-0.39374 -2.72936,-0.52288 -1.04028,-0.14646 -2.11479,-0.12448 -3.11641,-0.46201 -0.49775,-0.16739 -0.57423,-0.95826 0,-1.08888 1.54185,-0.351027 3.3821,0.0319 4.99108,0.42316 l 0.84096,0.2073 c 1.62106,0.39798 3.25775,0.8974 4.7343,1.69123 1.07366,0.57741 2.2069,1.45451 2.94718,2.52817 0.64287,-0.59741 1.44299,-0.57721 2.27646,-0.35564 l 0.45238,0.1258 c 0.74702,0.2071 1.35252,0.34964 2.0794,0.20617 0.0972,-0.52901 0.19563,-1.05823 0.30106,-1.58745 1.03584,-5.202182 2.17183,-10.384491 3.42528,-15.539113 2.16208,-8.89103 4.66389,-17.684478 7.48435,-26.387814 l 0.28311,-0.870034 c 0.6505,-1.990708 1.17402,-4.159585 2.22275,-5.988399 0.9919,-1.729268 2.58105,-2.725362 4.46915,-3.252892 2.14268,-0.598544 4.39416,-0.911765 6.57993,-1.316079 0.48761,-0.09004 0.97648,-0.175632 1.46451,-0.264187 -0.41243,-0.74494 -0.72027,-1.590548 -0.99756,-2.23949 l -0.0486,-0.112416 c -0.59571,-1.358708 -1.13084,-2.741896 -1.64759,-4.132463 l -0.38656,-1.045397 c -0.93302,-2.51735 -1.89619,-4.993358 -3.20803,-7.347816 -1.38085,-2.47787 -3.21275,-4.503663 -5.49634,-6.180305 -4.65591,-3.418802 -10.26782,-5.162654 -14.78366,-8.816266 -0.18507,-0.149636 0.0522,-0.405581 0.24,-0.310896 3.04923,1.532712 6.34099,2.57488 9.51254,3.822692 l 0.62563,0.246949 c 2.50677,0.99412 5.05257,2.076344 7.22232,3.685858 2.41902,1.794786 4.32423,4.023687 5.7562,6.674231 1.41127,2.612712 2.31401,5.537166 3.30972,8.327835 l 0.26631,0.743586 c 0.40161,1.115022 0.81644,2.226712 1.29179,3.311804 0.37732,0.861463 1.08148,1.844876 1.40155,2.828923 0.8757,-0.151961 1.75119,-0.304344 2.62774,-0.45081 18.98599,-3.1711 38.18409,-5.034364 57.42486,-5.579436 0.75275,-0.02135 1.14211,0.697244 1.0312,1.354121 -1.84648,10.922795 -3.4874,21.882998 -5.28782,32.814035 -0.78591,4.77081 -1.58746,9.538028 -2.40781,14.30292 -0.41557,2.414043 -0.89599,4.818787 -1.28958,7.236423 -0.31775,1.952456 -0.54845,3.920126 -1.09395,5.827356 -0.48929,1.71003 -1.24014,3.35899 -2.47331,4.66365 -1.32929,1.40633 -3.18464,2.08709 -5.05225,2.40876 -4.74106,0.81624 -9.60401,1.14954 -14.38352,1.69334 l -25.44655,2.89613 c 0.37186,3.38132 0.39965,6.71002 0.22903,10.1307 l -0.0972,1.86735 c -0.0795,1.50199 -0.17453,3.00624 -0.39018,4.49277 -0.27042,1.86474 -1.1231,3.44374 -2.37908,4.83654 -1.15331,1.27909 -2.55444,2.37051 -3.91733,3.41627 -1.41465,1.08591 -2.87641,2.134 -4.53972,2.80546 l -0.21589,0.0857 c -1.45919,0.56994 -4.1965,1.4525 -6.19101,1.12997 0.26071,1.30678 0.76521,2.71183 0.31796,4.00487 -0.20747,0.60045 -0.99232,0.89993 -1.47317,0.3891 -0.95261,-1.01258 -1.02697,-2.35 -1.25261,-3.67094 -0.23471,-1.37463 -0.43711,-2.75411 -0.6169,-4.13697 -0.34774,-2.6738 -0.61838,-5.37211 -0.70098,-8.06851 -0.0849,-2.76911 -0.0522,-5.54203 0.097,-8.30818 0.0767,-1.42049 0.17176,-2.84013 0.35197,-4.25152 0.0769,-0.60193 0.15549,-1.20428 0.24528,-1.80472 0.0327,-0.21896 0.0691,-0.43687 0.10817,-0.65435 l -2.28397,0.25779 c -3.50212,0.39112 -7.00591,0.74432 -10.53279,0.79918 -0.41767,0.006 -0.73901,-0.18388 -0.94901,-0.46096 -0.22374,0.36458 -0.61331,0.62539 -1.17127,0.62327 -4.92528,-0.0184 -9.5119,-1.62951 -13.99162,-3.52828 -2.25803,-0.95741 -4.48098,-1.99388 -6.74239,-2.94305 -2.110777,-0.88598 -4.367326,-1.51813 -6.427185,-2.51613 l -5.412676,2.84013 c -0.03972,0.1397 -0.09063,0.2718 -0.144718,0.38233 -0.352395,0.71965 -1.047254,1.11001 -1.756902,1.404 -0.681126,0.28279 -1.386549,0.37071 -2.073802,0.29927 -4.104983,2.15197 -8.210916,4.30192 -12.319582,6.44682 l -4.109644,2.14309 c -8.187887,4.26484 -16.34345,8.59964 -24.582887,12.76429 l -0.606589,0.30548 c -2.845933,1.4276 -5.90189,2.8747 -9.060172,3.9545 -0.0562,0.79975 -0.0207,1.57752 0.04627,2.42398 l 0.01612,0.18439 c 0.09417,1.00029 0.296069,2.25366 -0.506052,2.96578 -0.417253,0.37029 -1.162605,0.37177 -1.446338,-0.18662 -0.514859,-1.01258 -0.0526,-2.60891 0.110493,-3.70899 0.05789,-0.39121 0.128451,-0.79341 0.232817,-1.18356 -3.620704,1.07831 -7.351056,1.60119 -11.035563,0.99567 -3.587324,-0.58903 -6.365705,-2.84984 -8.605564,-5.61515 -2.363873,-2.91811 -4.043662,-6.31895 -4.9449292,-9.96453 -1.0257042,-4.14839 -1.0926761,-8.43246 -1.0685916,-12.68165 0.025563,-4.5248 0.1928874,-9.07201 0.7430282,-13.56637 -0.6027465,-0.14181 -1.2711972,-0.2644 -1.8802817,-0.22213 -0.3016901,0.48294 -0.8869014,0.68626 -1.4157042,0.62349 -1.1499296,1.26873 1.766831,2.56537 2.6989437,2.89 0.3236619,0.11286 0.289014,0.6387 -0.084296,0.62285 l -0.2351457,-0.0112 c -1.4402876,-0.0767 -2.928299,-0.32266 -3.775136,-1.66166 -0.6785916,-1.07324 -0.4747183,-2.34472 0.3342253,-3.21992 0.5342958,-5.053811 1.8116198,-9.975102 3.0004226,-14.905059 1.1666197,-4.838865 2.4640146,-9.646662 3.8391556,-14.430153 l 0.616484,-2.140997 c 2.165133,-7.500519 4.428237,-15.061557 7.414853,-22.264044 1.491339,-3.596337 3.209367,-7.126521 5.538169,-10.262325 2.170775,-2.923186 4.733662,-5.424517 7.679578,-7.560845 5.491904,-3.983049 11.936086,-6.389701 18.267768,-8.682602 l 0.283429,-0.102596 c 3.281197,-1.187366 6.554366,-2.388892 9.798169,-3.675382 2.868803,-1.137698 5.617183,-2.580164 8.472465,-3.734982 -0.09275,-0.168446 -0.182324,-0.338794 -0.268521,-0.511045 l -0.05279,0.04441 c -0.009,0.0072 -0.01827,0.01413 -0.02792,0.02068 -0.287113,0.199092 -0.709859,0.101237 -0.946479,-0.12216 -0.668119,-0.630674 -0.441926,-1.330766 0.004,-1.9848252 l 0.05807,-0.083238 c 0.545493,-0.764454 1.032043,-1.5726575 1.535493,-2.3647984 L 70.28468,7.0162423 c 0.845061,-1.323395 1.733116,-2.655622 2.859876,-3.7493832 0.521831,-0.506818 1.093099,-0.8859805 1.69838,-1.1685558 -0.05176,-0.1094795 0.402043,-0.3332994 0.530705,-0.2206497 1.917676,-0.7021057 4.123943,-0.5550059 6.214648,-0.361409 M 156.93138,116.6918 l -2.66619,0.30328 c -2.93324,0.3339 -5.86762,0.65675 -8.80237,0.97648 l -6.37447,0.69298 c -0.0163,0.36352 -0.0604,0.71901 -0.0684,0.99356 -0.0416,1.41541 -0.0727,2.83146 -0.10204,4.24729 -0.0589,2.83801 0.006,5.67877 0.19247,8.51129 0.18103,2.74465 0.41943,5.48967 0.7899,8.21573 l 0.0759,0.54495 0.0439,0.28659 c 0.30233,0.0292 0.59937,0.17289 0.84634,0.46814 0.53916,0.64399 2.49148,0.018 3.25395,-0.25341 1.25387,-0.44637 2.43464,-1.20047 3.52415,-1.95668 1.06399,-0.73838 2.02206,-1.59939 2.94273,-2.50638 l 0.75328,-0.7453 c 0.74933,-0.74491 1.49946,-1.53848 1.95857,-2.47549 0.6226,-1.27063 0.7031,-2.8304 0.88563,-4.21432 0.22479,-1.70222 0.49247,-3.40422 0.77535,-5.09798 m -75.427596,-25.858708 -0.27655,0.0727 c -10.045986,2.670418 -20.076972,5.419658 -30.153803,7.972138 -4.98676,1.26345 -9.997183,2.43496 -14.99007,3.67411 l -0.808361,0.20225 c -3.938855,0.9959 -7.924995,2.19451 -10.941287,5.05255 -0.111338,0.10526 -0.272958,-0.0564 -0.168169,-0.16823 3.250775,-3.46192 7.874155,-4.92742 12.31331,-6.19785 0.820563,-0.23481 1.642183,-0.46412 2.462958,-0.69767 -6.037183,-2.15302 -12.169648,-4.02622 -18.443662,-5.36216 -1.615564,-0.34408 -3.24993,-0.59665 -4.864226,-0.94199 -1.125823,-0.241 -2.225294,-0.58935 -3.339225,-0.87832 l -0.8761973,-0.22049 -0.011636,2.7703 c -0.014582,3.92373 -0.00762,7.84426 0.1924816,11.76743 l 0.037879,0.72674 c 0.2334638,4.36593 0.5978817,8.82251 2.1466287,12.93917 1.258521,3.34525 3.264507,6.49669 5.887817,8.93335 1.327394,1.23281 2.754507,2.19255 4.518592,2.6664 1.637957,0.43982 3.354084,0.49139 5.037887,0.37409 8.076549,-0.56368 15.265986,-4.95279 22.28176,-8.58674 11.475423,-5.94381 22.952113,-11.88465 34.439155,-17.80563 -0.310563,-0.21241 -0.602958,-0.45715 -0.868943,-0.73212 -1.540353,-1.59147 -2.352888,-3.77007 -2.88655,-5.87998 -0.568098,-2.2458 -0.907817,-4.65287 -0.947324,-6.97139 m 14.873684,15.87793 c 0.101408,-0.0545 0.218873,0.0137 0.223521,0.12829 0.03549,0.87767 -0.449353,1.74332 -0.811615,2.53399 l -0.03831,0.0844 c -0.44007,0.97939 -0.921972,1.94569 -1.420352,2.89676 -0.996127,1.90025 -2.031338,3.78022 -3.111761,5.63355 -2.172676,3.72843 -4.587042,7.29982 -7.440845,10.54616 -0.644577,0.73339 -1.704718,-0.20691 -1.291056,-0.99651 1.994366,-3.80642 4.319366,-7.40043 6.712606,-10.96316 1.198098,-1.7838 2.395352,-3.56929 3.605281,-5.34505 0.504754,-0.74096 1.015963,-1.47928 1.540963,-2.20639 l 0.316713,-0.43486 M 213.29398,45.535315 c -10.08106,0.304556 -20.15028,0.962278 -30.18338,1.993033 -9.33085,0.958474 -18.62747,2.234396 -27.87169,3.825018 -1.93081,0.332172 -3.85927,0.677994 -5.78527,1.037466 l -1.1553,0.217321 c -1.92633,0.365213 -4.27964,0.515906 -5.99471,1.545393 -1.80824,1.085284 -2.29691,3.353495 -2.8986,5.223945 -0.70732,2.199734 -1.39669,4.405808 -2.06746,6.617167 -2.66366,8.780125 -5.09683,17.636336 -7.26739,26.551091 -1.07747,4.425042 -2.03346,8.874811 -3.04078,13.315911 -0.89493,3.94591 -1.88239,7.84723 -2.91401,11.75362 0.12718,-0.0989 0.2831,-0.17416 0.47134,-0.21431 5.12277,-1.09027 10.35202,-1.56428 15.55137,-2.1666 l 0.50306,-0.0587 c 5.37866,-0.63278 10.75733,-1.26092 16.13916,-1.86622 l 35.63218,-4.00869 c 2.10148,-0.23628 4.35275,-0.26841 6.39782,-0.8325 3.47699,-0.95956 4.29197,-4.84835 4.87534,-7.94532 l 0.0176,-0.0936 c 1.75881,-9.357115 3.15888,-18.795596 4.79916,-28.176379 M 124.9446,106.73793 c -1.38338,-0.0913 -3.27676,-1.35877 -4.32634,-1.26789 0.55099,0.92487 0.79965,1.97972 0.48212,3.10622 -0.88373,3.13474 -4.88028,1.51284 -6.80535,0.55521 -1.57838,-0.78558 -3.10247,-1.74681 -4.84986,-2.11477 -1.97958,-0.41636 -3.32071,0.37113 -4.9931,1.27888 -1.37366,0.74544 -2.86965,1.28079 -4.4081,1.55787 -0.818029,0.14752 -1.595071,0.16316 -2.370635,0.10567 -0.04669,0.038 -0.0993,0.0733 -0.159296,0.10483 l -0.410281,0.21537 c 1.855141,0.085 3.744722,0.65772 5.471202,1.18208 1.78901,0.54309 3.5453,1.1979 5.29224,1.86748 l 1.71859,0.66081 c 4.23917,1.62398 8.6273,3.16611 13.21508,3.15259 0.32979,-8.4e-4 0.6,0.0905 0.81275,0.23946 m -6.40895,-20.466102 c 1.36669,-0.167178 2.62817,0.01205 3.72021,0.902043 1.31704,1.073237 2.20183,2.853229 4.09521,2.970109 0.55204,0.034 0.68028,0.81052 0.13162,0.97284 -1.40937,0.41742 -2.55042,-0.34534 -3.51063,-1.33573 l -0.6456,-0.674783 c -0.9489,-0.982934 -1.82406,-1.742827 -3.43419,-1.684099 -1.72437,0.06298 -3.45169,0.461589 -5.16486,0.664274 -1.94071,0.229526 -3.88099,0.425237 -5.82782,0.594105 -0.0904,0.0078 -0.10585,-0.13463 -0.0211,-0.155553 l 2.18054,-0.542887 m 7.15741,-7.299731 0.2254,-0.02257 c 1.98459,-0.19278 3.79958,-0.200261 5.57199,0.867758 l 0.33995,0.205655 c 1.59801,0.971652 3.33735,2.11638 4.33667,3.689531 0.16352,0.257636 -0.10669,0.560501 -0.38028,0.494982 -1.92063,-0.461166 -3.32472,-1.870873 -4.93986,-2.925933 -1.81268,-1.183985 -3.68514,-0.988697 -5.75197,-0.804822 -2.00113,0.178168 -4.0012,0.422912 -5.98268,0.756634 -1.8619,0.313221 -3.72972,0.807781 -5.61042,0.965448 l 4.2e-4,-0.0038 c -0.21486,-4.23e-4 -0.33739,-0.323155 -0.11831,-0.432634 1.90859,-0.953402 4.11909,-1.404634 6.19521,-1.840227 M 176.17377,71.70344 c -0.19183,-0.917894 0.93676,-1.343553 1.45986,-0.615452 l 0.11125,0.153556 c 1.13011,1.548852 2.7645,3.49238 2.68129,5.462233 0.99338,0.02177 2.02331,0.625597 2.41035,1.522356 0.17894,0.414881 0.23958,0.906482 0.20007,1.415413 0.90296,0.07017 1.88768,0.663217 2.43972,1.240626 0.915,0.957206 0.98725,2.309848 0.33084,3.428313 -1.4312,2.438068 -4.55778,3.324989 -7.19721,3.522982 l -0.094,0.0068 c -2.7262,0.188524 -6.65451,0.137589 -8.52381,-2.202271 -1.80317,-2.257009 0.18972,-4.084344 2.23331,-5.076634 -0.53197,-0.485894 -0.80746,-1.182716 -0.54845,-1.917581 0.45486,-1.291561 2.06071,-1.790559 2.9681,-2.688375 1.10616,-1.094757 1.83714,-2.596438 1.54565,-4.166254 m 1.48139,1.899099 c -0.30063,1.30699 -1.03922,2.502387 -2.06788,3.449659 -0.39338,0.362255 -0.82374,0.684775 -1.28092,0.961856 l -0.055,0.03191 c -0.40574,0.227862 -1.40306,0.654766 -1.32631,1.166022 0.079,0.525417 1.70388,1.347781 2.14669,1.348204 0.10078,0 0.15782,0.157456 0.0549,0.203107 -0.8026,0.354646 -1.50359,0.506607 -2.28845,0.131883 -0.52436,0.535561 -1.03373,1.089722 -1.53824,1.639021 -0.89218,0.972 -0.5869,1.998317 0.46733,2.721981 1.69394,1.162849 4.26887,1.134528 6.24528,1.049988 1.98929,-0.08496 4.1157,-0.528798 5.66958,-1.854388 l 0.0677,-0.05898 c 0.8445,-0.75137 1.61586,-2.024578 0.32253,-2.748178 -0.50641,-0.283421 -1.05359,-0.266724 -1.53444,-0.404525 -0.45,0.882388 -1.17993,1.589143 -2.07063,1.725464 -0.71984,0.110149 -1.21559,-0.794983 -0.56077,-1.227904 l 0.1471,-0.09143 c 0.82225,-0.525002 1.52388,-1.333638 1.50529,-2.386695 -0.0127,-0.731016 -1.03315,-1.654316 -1.69796,-0.967443 l -0.0304,0.03285 c -0.55629,0.627294 -1.53613,-0.163188 -1.17024,-0.858262 l 0.0176,-0.03152 M 47.92857,37.340334 c -0.0025,-0.157033 0.218303,-0.215788 0.295416,-0.07989 1.291267,2.272649 1.966267,5.058458 2.654155,7.562325 0.720422,2.622857 1.302042,5.272344 1.824507,7.941276 1.058239,5.404438 1.622113,10.777808 1.660401,16.286019 0.0052,0.786435 -1.275471,0.995671 -1.400753,0.189793 -0.831761,-5.357942 -1.628662,-10.721378 -2.466761,-16.07784 -0.42169,-2.694082 -0.912465,-5.377808 -1.382113,-8.063859 M 60.712014,41.29882 c -0.09507,-0.313433 0.360845,-0.418263 0.477465,-0.131672 2.591408,6.363546 3.469014,13.575241 1.805282,20.288783 -0.254578,1.026951 -1.758169,0.582059 -1.566127,-0.432 M 94.138225,35.644396 c -0.0131,-0.234599 0.291338,-0.271585 0.406057,-0.110113 1.227887,1.730747 1.737253,4.048626 3.891549,4.94306 1.075563,0.446583 2.285919,0.368807 3.236199,1.123116 0.63528,0.504493 1.12246,1.300861 0.64563,2.064892 -0.1538,0.246857 -0.58436,0.370497 -0.7931,0.102294 -0.30464,-0.390787 -0.46584,-0.858717 -0.87971,-1.151648 -0.58374,-0.41319 -1.37092,-0.438763 -2.040216,-0.632994 -0.865775,-0.251084 -1.628873,-0.690482 -2.253803,-1.343343 M 114.65193,6.7773487 c 0.12655,-0.064462 0.24803,-0.023249 0.32894,0.086231 0.11557,0.1559766 0.10141,0.3077261 -0.0401,0.4146693 0.18909,0.3865597 0.4124,1.3549668 0.4443,1.4959374 0.12929,0.5714912 0.26683,1.1396008 0.4107,1.7072876 0.29028,1.144885 0.54465,2.298646 0.83514,3.443953 0.30803,1.213996 0.675,2.4151 1.08338,3.598873 0.0263,0.07665 0.0553,0.154896 0.0857,0.234301 l 0.0465,0.119922 0.0114,-0.01818 c 0.083,-0.131249 0.25584,-0.03952 0.23535,0.09912 -0.019,0.126387 -0.0446,0.252141 -0.0661,0.378528 l 0.0428,0.113226 c 0.26713,0.71926 0.45008,1.476773 -0.04,2.111448 -0.18338,0.237346 -0.38514,0.377894 -0.63655,0.419741 -0.4031,1.329394 -0.90887,2.634059 -1.45035,3.886944 l -0.15871,0.365897 c -0.7965,1.828217 -1.64598,3.632414 -2.91418,5.188811 -1.38465,1.699256 -3.28923,2.859569 -4.49535,4.721566 -0.56113,0.866113 -0.95155,1.776821 -1.26845,2.754951 l -0.11922,0.371274 c -0.22493,0.691836 -0.48445,1.362406 -1.13318,1.768225 -0.20704,0.129346 -0.51718,0.08813 -0.68408,-0.08835 -1.33035,-1.407804 0.0623,-4.036579 0.8645,-5.399577 1.11507,-1.895389 2.72895,-3.107906 4.34493,-4.537902 1.74191,-1.541378 2.85296,-3.603311 3.92768,-5.634599 0.65831,-1.244431 1.2938,-2.515703 1.96289,-3.765628 -0.69903,-0.618069 -0.92279,-1.845785 -1.15962,-2.699144 l -0.0216,-0.07652 c -0.39148,-1.366591 -0.70246,-2.768689 -0.89894,-4.176915 -0.1891,-1.354035 -0.26797,-2.688599 -0.21794,-4.0502095 l 0.0144,-0.3468516 m 3.26483,3.9574101 c -0.15444,-0.211773 0.10119,-0.451656 0.3131,-0.407484 1.28835,0.266506 2.54795,1.046657 3.70425,1.677497 l 0.12349,0.06699 c 0.92303,0.497941 1.85176,1.107898 2.33641,2.075248 0.52712,1.051372 0.48369,2.262328 0.41181,3.404889 l -0.007,0.106908 c -0.0881,1.370183 -0.10225,2.793839 -0.39211,4.139295 -0.14831,0.688579 -0.77176,0.882599 -1.30479,0.719859 -0.63423,2.00339 -2.41585,3.47946 -3.71725,5.06036 -1.6593,2.015437 -1.34705,4.736572 -1.1736,7.16393 0.0702,0.982779 -1.15183,1.262184 -1.78119,0.737824 l -1.45041,-1.205167 c -0.24154,-0.201158 -0.48276,-0.402716 -0.72332,-0.605049 -0.20606,-0.173448 -0.41024,-0.348211 -0.61273,-0.525166 l -0.30249,-0.267186 c -0.13415,-0.120047 -0.72591,-0.781362 -0.89894,-0.808837 -0.4191,-0.06665 -1.41479,1.038296 -1.75556,1.384853 l -0.0432,0.04324 c -0.64141,0.62919 -1.22092,1.306145 -1.76071,2.024102 -0.0993,0.131883 -0.29345,0.0224 -0.22246,-0.12998 0.48367,-1.036475 1.04607,-2.02744 1.71384,-2.954957 l 0.13496,-0.184652 c 0.4443,-0.598966 1.0407,-1.656563 1.82493,-1.833464 0.95758,-0.215845 1.91375,0.744812 2.61046,1.277992 l 0.0441,0.03344 c 0.33148,0.248759 0.65915,0.501957 0.98619,0.756845 -0.0342,-1.807256 0.19395,-3.633323 1.1267,-5.190763 0.65767,-1.098387 1.64302,-1.911875 2.48619,-2.855765 0.93867,-1.051045 1.4288,-2.342818 2.27852,-3.437401 0.10944,-0.140759 0.26028,-0.216634 0.4236,-0.240728 0.0327,-0.879986 0.1622,-1.768705 0.26231,-2.639163 l 0.029,-0.260563 c 0.1012,-0.945793 0.34035,-2.101033 -0.12253,-2.986803 -0.43725,-0.83663 -1.44049,-1.427181 -2.18341,-1.994829 l -0.6066,-0.470718 M 75.438063,3.2210841 c -0.387887,0.2244541 -0.750422,0.5036478 -1.079366,0.8525871 -1.035422,1.0988102 -1.775704,2.4662466 -2.496127,3.7816908 -0.387887,0.7084462 -0.761831,1.4247124 -1.152887,2.1314678 -0.17007,0.3075142 -0.345,0.6116482 -0.521831,0.9153582 -0.08176,0.139914 -0.324718,0.418051 -0.445141,0.589456 0.133807,0.187556 0.272152,0.372233 0.413273,0.554912 0.05384,0.0697 3.768085,4.117343 5.062784,5.701479 1.982535,2.426513 3.754648,4.989558 5.269648,7.732885 1.483521,2.686473 2.612957,5.530826 3.987253,8.269291 0.687887,1.37103 1.456056,2.732337 2.435282,3.918858 0.03782,0.04628 0.07775,0.09004 0.116408,0.135686 0.373719,-1.01001 1.331343,-2.091425 1.801675,-2.712376 l 0.04396,-0.05864 c 1.06669,-1.43845 2.193169,-2.833574 3.344155,-4.205026 1.051268,-1.252321 2.129243,-2.477589 3.233334,-3.682632 L 95.86574,26.695124 C 96.634965,25.863886 97.612077,24.62009 98.738134,24.026196 98.6175,23.811041 98.477852,23.598211 98.317289,23.388129 97.262218,22.00891 95.770795,21.007964 94.299151,20.104797 L 93.34478,19.524028 C 89.747334,17.330891 86.20593,15.036112 83.082782,12.186564 81.430458,10.678791 79.800951,9.0993699 78.412077,7.3407241 L 77.920893,6.7189068 m 3.519706,-4.5835291 c -1.684648,0.1413933 -3.503874,0.1077886 -5.060705,0.6568767 1.384014,1.3088924 2.699578,2.7221918 4.051057,4.0530646 0.120211,-0.9001409 0.366126,-1.7892916 0.574436,-2.6670294"
               id="ðŸ–-Ink"
               fill="#000000" />
          </g>
          <g
             id="head/Short-5"
             transform="translate(78.591549,38.043053)"
             fill-rule="evenodd">
            <path
               d="m 51.135456,15.906142 c 11.995911,0 24.403629,9.301948 28.800867,15.237769 3.696989,4.990555 5.687512,27.557609 5.687512,42.808615 0,3.189665 1.75953,9.202395 1.246051,12.253432 -1.881597,11.18025 -10.079316,20.556742 -26.304349,20.556742 -16.225034,0 -27.858156,-6.4338 -39.917818,-23.707843 -5.851404,0 -8.687232,-4.489056 -8.729004,-11.573257 -0.02706,-4.722801 1.855832,-7.943347 5.648687,-9.661639 C 16.215063,43.181789 17.241836,31.43646 20.647719,26.583976 25.756543,19.305249 39.139546,15.906142 51.135456,15.906142 Z"
               id="path43"
               fill="#ffffff" />
            <path
               d="m 46.087289,11.953106 c 7.573943,-0.767202 14.995774,-0.122583 22.459859,1.211249 0.570422,0.10335 0.893662,0.477651 1.013873,0.927616 3.515704,0.160626 7.035423,0.418685 10.546479,0.611014 1.274155,0.06974 1.996479,1.329182 1.415493,2.466458 -0.115986,0.225933 -0.23662,0.445737 -0.359155,0.665542 l 0.153942,-0.05077 c 1.056228,-0.338976 2.197177,-0.506097 3.22634,0.03196 1.309859,0.684774 1.82345,2.195718 1.534014,3.586403 -0.07416,0.355068 -0.198592,0.695342 -0.340141,1.027374 0.287324,-0.01902 0.57676,-0.01268 0.864084,0.02536 1.529578,0.202897 2.666198,1.375891 2.746479,2.93777 0.11831,2.358457 -1.400704,4.751154 -3.19014,6.439632 0.259647,0.534927 0.359154,1.164751 0.251197,1.803029 -0.215493,1.261761 -1.144648,2.017339 -2.221691,2.510208 0.449156,1.426825 0.661479,2.918536 0.536198,4.443005 -0.04183,0.508932 -0.486761,0.929308 -0.956409,1.032446 1.750564,4.821746 2.63662,9.99856 3.273803,15.042858 0.454225,3.588939 0.678169,7.198802 0.705423,10.814794 0.01333,1.632564 -0.01356,3.266964 -0.08202,4.899788 l -0.02762,0.612228 c -0.08451,1.764986 -0.08873,3.618317 -0.405634,5.364282 1.08169,1.840649 1.516901,4.125557 1.700704,6.188125 0.228169,2.553111 -0.133098,5.186536 -0.938239,7.615162 -3.038029,9.176621 -12.206831,14.967621 -21.416198,16.472641 -8.524436,1.3928 -18.388521,-0.48188 -23.370211,-8.22808 -0.07817,-0.12258 0.08873,-0.22382 0.185916,-0.1435 3.564084,2.89951 7.69838,4.19298 12.190141,4.8228 7.766197,1.08655 16.495563,-0.75664 22.727957,-5.642843 2.99155,-2.345988 5.148592,-5.761409 6.097395,-9.437002 0.483802,-1.878693 0.650704,-3.838121 0.460352,-5.771765 -0.194366,-1.961331 -1.062465,-3.635225 -1.609648,-5.488767 -0.183803,-0.625809 0.01056,-1.207022 0.392958,-1.621057 0.107535,-1.505026 0.361267,-3.022521 0.458239,-4.522896 0.107747,-1.705809 0.173451,-3.411405 0.19669,-5.119116 0.04437,-3.542231 -0.103521,-7.090802 -0.401408,-10.618027 -0.545071,-6.459076 -1.992254,-12.761331 -2.84155,-19.165456 -0.314506,0.282145 -0.765232,0.398 -1.237673,0.151497 l -0.04895,-0.0268 -0.257747,-0.147733 c -0.01479,0 -0.03169,0.0021 -0.04669,0.004 -1.763873,0.171405 -3.593451,-0.07376 -5.283591,-0.600235 -1.768522,-0.549299 -3.409859,-1.3947 -4.876268,-2.521197 -0.278662,1.413722 -0.39507,2.84245 -0.396972,4.283859 -0.0021,0.900352 -0.954929,1.367648 -1.711267,0.98299 -3.352817,-1.703695 -6.555634,-3.666928 -9.595775,-5.873424 -0.355141,1.819725 -0.709859,3.63924 -1.067113,5.46108 -0.137112,0.701894 -1.030986,0.985103 -1.603521,0.65117 -2.277253,-1.325378 -4.244155,-3.060352 -5.845563,-5.123343 -0.319719,0.611648 -0.640376,1.223202 -0.963224,1.833409 l -0.486072,0.914145 c -0.479577,0.898239 -1.121831,1.891797 -2.171831,2.179022 -1.111268,0.304344 -2.038944,-0.416149 -2.412676,-1.422388 -0.114085,-0.312587 -0.219718,-0.634051 -0.316902,-0.957417 -0.94669,2.162325 -2.015492,4.275828 -3.223943,6.29211 -1.812676,3.024211 -3.988944,5.718928 -6.158451,8.483389 -0.659155,0.839273 -1.787324,0.03804 -1.878169,-0.777557 -0.05282,-0.479765 -0.09718,-0.961644 -0.135422,-1.441621 -1.264226,2.552267 -2.583381,5.08065 -4.020634,7.535695 l 0.205774,0.806724 v 0 c 0.593029,2.383609 1.085493,4.784126 1.620845,7.180415 0.172817,0.773119 -0.237887,1.878481 -1.140845,2.010153 -1.078732,0.157244 -2.099366,0.708657 -3.204295,0.329283 -1.20486,-0.413823 -1.442958,-1.455569 -2.011691,-2.442998 -0.11345,-0.196767 -0.245492,-0.377471 -0.387464,-0.549088 l -0.03613,0.04692 v 0 c -0.08873,0.116454 -0.3,-0.01036 -0.247183,-0.143507 l 0.0619,-0.153863 v 0 c -0.488662,-0.518865 -1.07345,-0.95171 -1.611127,-1.417315 -1.277746,-0.215366 -2.715,0.0205 -3.595352,0.539789 -2.004929,1.18335 -2.925845,3.622333 -2.944859,5.864971 -0.02324,2.62497 0.78993,5.57542 2.163169,7.81996 0.604437,0.987006 1.432606,1.878693 2.526761,2.3164 1.086127,0.43517 2.262887,0.300117 3.367817,0.709925 0.730986,0.272853 1.180986,1.084439 0.739436,1.819726 -0.02958,0.05094 -0.06338,0.09722 -0.09528,0.146043 l 0.32863,0.436329 c 0.226041,0.302247 0.461722,0.625847 0.68144,0.962599 0.561972,0.646943 1.153521,1.270427 1.726056,1.906591 1.05824,1.172783 2.085212,2.377691 3.12655,3.567381 0.982605,1.122482 2.022042,2.176909 3.093169,3.214639 1.011972,0.98299 2.275352,1.809158 3.204929,2.857667 0.904014,1.022935 1.149296,2.808634 -0.338239,3.400626 -1.645625,0.656507 -3.102451,-0.882148 -4.210232,-1.907944 l -0.0466,-0.04303 c -2.030704,-1.869393 -3.864507,-4.005722 -5.320775,-6.357839 -1.442535,0.982356 -3.529014,1.076196 -4.965422,0.09405 -0.755916,-0.516752 -1.335845,-1.38519 -1.617676,-2.329926 -0.265775,0.0596 -0.531338,0.09447 -0.790352,0.09046 -0.13331,0.07735 -0.267043,0.152595 -0.402254,0.222763 -1.071338,0.557754 -2.387324,0.308572 -2.877465,-0.877315 -0.446325,-1.07654 0.0136,-2.299164 0.41562,-3.336407 l 0.08297,-0.214278 c 0.228171,-0.591556 0.479579,-1.236174 0.792255,-1.84275 C 14.749965,81.64819 14.006092,80.83428 13.376725,79.908777 11.261937,76.79136 10.205599,72.232323 10.6725,68.51277 c 0.280986,-2.244541 1.335,-4.569394 3.061056,-6.082873 l -0.06317,-0.164854 v 0 c -0.483802,-1.227733 -0.92345,-2.460117 -1.20845,-3.757596 -0.333803,-1.517496 -0.496691,-3.089942 -0.644367,-4.634912 -0.312676,-3.263249 -0.228169,-6.60047 0.188029,-9.851037 0.78169,-6.118592 2.76338,-12.125167 6.280985,-17.216596 -0.997394,-1.19434 -1.787323,-2.599819 -1.375563,-4.216438 0.18824,-0.742051 0.616901,-1.445636 1.263592,-1.870661 0.356831,-0.234388 0.78169,-0.270317 1.138732,-0.46476 l 0.107357,-0.05913 c 0.15683,-0.09155 0.03687,-0.08185 -0.05665,-0.507285 -0.369718,-1.699468 -0.06338,-3.341449 1.806338,-3.905754 1.759859,-0.530489 3.424648,0.596008 4.466198,1.938082 2.725352,-1.934066 6.316901,-2.946223 9.475352,-3.806418 3.591549,-0.974537 7.275845,-1.583014 10.975352,-1.959429 z M 16.649345,68.954344 c -0.01289,-1.384345 1.299085,-2.2382 2.590141,-2.011844 0.866906,0.150919 1.590085,0.668497 2.269167,1.203465 l 0.331087,0.262057 c 0.826924,0.649452 1.776295,1.349608 2.269253,2.269038 0.722535,1.356869 -0.804718,3.182724 -2.230775,2.231648 -0.978239,-0.65582 -1.605272,-1.70663 -2.246934,-2.682788 l -0.06645,-0.100696 c -0.291549,-0.437495 -0.547183,-0.902466 -0.94669,-1.253307 l -0.0863,-0.0756 c -0.131295,-0.111957 -0.272298,-0.214139 -0.441869,-0.262557 -0.327124,-0.09408 -0.933029,0.03767 -1.077282,0.427264 l -0.01286,0.03982 c -0.05282,0.196767 -0.34838,0.154285 -0.350493,-0.0465 z"
               id="path45"
               fill="#000000" />
          </g>
          <g
             id="face/Driven"
             transform="translate(112.1831,77.354207)"
             fill="#000000"
             fill-rule="evenodd">
            <path
               d="m 37.789841,48.804432 c -1.433857,0.563898 -3.127918,0.697094 -4.607919,0.216642 -1.415154,-0.459516 -2.700171,-1.482177 -3.477713,-2.768314 -0.69254,-1.145535 -0.981759,-2.504954 -0.572465,-3.860169 0.01958,-0.06487 0.0831,-0.106351 0.144377,-0.122532 0.33485,0.304972 0.541729,0.607868 0.748427,0.909285 0.348474,0.508162 0.697722,1.011108 1.177141,1.445566 0.697533,0.632049 1.637326,1.145389 2.570035,1.314684 0.913224,0.166127 1.847881,0.01931 2.66559,-0.417973 0.497285,-0.265734 0.899362,-0.621087 1.297507,-0.978018 0.433547,-0.388668 0.860226,-0.783253 1.457328,-1.002724 0.478493,-0.175908 0.981111,-0.02747 1.367233,0.266781 0.415002,0.316264 0.713429,0.81132 0.696885,1.32888 -0.02562,0.801873 -0.376495,1.470769 -0.885599,2.022632 -0.688277,0.746084 -1.661456,1.283656 -2.580827,1.64526 z M 36.087529,28.821238 c 1.595362,0.970108 4.026203,3.232209 2.309961,5.637224 -2.020181,2.12058 -4.928786,-0.31081 -6.362095,-1.410434 -1.329032,-0.852214 -2.822274,1.339617 -1.589198,2.334721 10.357127,7.671009 14.560269,-6.307841 6.448244,-7.702119 -0.893164,-0.153644 -1.224887,0.840495 -0.806912,1.140608 z M 19.307324,15.379602 c 2.174366,-0.103985 4.090563,0.872876 6.162676,1.316712 1.91493,0.410442 3.801549,0.164008 5.663873,-0.358028 3.022395,-0.847303 4.271831,3.781269 1.290634,4.683312 -2.170986,0.656876 -4.456901,0.702528 -6.684718,0.363945 -1.978944,-0.300963 -3.637817,-1.26472 -5.524648,-1.825855 -1.619263,-0.481319 -3.524128,-0.281283 -5.234159,-0.05468 l -0.663799,0.08934 c -0.98662,0.132939 -1.978521,0.266301 -2.955422,0.459264 -0.847606,0.167601 -1.6937328,0.47427 -2.5588737,0.509777 -0.098239,0.0042 -0.1814788,-0.123428 -0.1195774,-0.208603 1.0049765,-1.380239 2.9418991,-2.469308 4.4826221,-3.195686 l 0.10442,-0.04896 c 1.901831,-0.887037 3.919437,-1.629511 6.036972,-1.730536 z m -0.796621,10.177696 -2.73e-4,-0.04761 c 0.003,-1.347736 0.787608,-4.42491 2.727068,-4.42491 1.211615,0 1.94722,2.094228 2.074565,4.253077 l 0.0044,0.08802 c 0.05623,1.342186 -0.311945,4.275969 -2.078988,4.275969 -1.785744,0 -2.708435,-2.778658 -2.726795,-4.144544 z m 28.553935,0 2.72e-4,-0.04761 c -0.003,-1.347736 -0.787608,-4.42491 -2.727068,-4.42491 -1.181324,0 -1.910142,1.990826 -2.063875,4.091317 l -0.01069,0.16176 c -0.0765,1.296871 0.267813,4.363991 2.074565,4.363991 1.785744,0 2.708435,-2.778658 2.726796,-4.144544 z m -0.02973,-11.819197 0.138721,0.003 c 2.266479,0.07862 4.597817,1.421753 5.202887,3.677918 0.03127,0.117088 -0.113028,0.195921 -0.198592,0.115608 -1.863617,-1.745482 -4.369963,-0.07763 -6.2361,0.796601 l -0.685438,0.316773 c -2.405753,1.119687 -5.141944,2.436074 -7.813109,1.601632 -1.268662,-0.396282 -2.074437,-1.700313 -1.712536,-3.017448 0.321953,-1.171934 1.735985,-2.156828 2.960732,-1.733829 l 0.05554,0.0202 c 0.99507,0.380782 2.218574,-0.005 3.246264,-0.385392 l 0.844206,-0.31714 c 1.357506,-0.515312 2.721288,-1.091838 4.197429,-1.077974 z"
               id="path48" />
          </g>
          <g
             id="facial-hair/*-None"
             transform="translate(104.57745,109.47938)" />
          <g
             id="accessories/*-None"
             transform="translate(88.521127,88.978474)" />
        </g>
      </g>
    </g>
    <path
       style="fill:#ffffff;stroke-width:0.0500618"
       d="m 57.56606,223.67422 c 1.7246,-0.1736 3.04833,-0.58672 4.055,-1.2655 0.6792,-0.45796 1.34081,-1.24315 1.57677,-1.87127 0.50481,-1.34379 -0.32978,-2.73763 -2.302,-3.84456 l -0.50513,-0.2835 0.17919,-0.18384 c 0.0986,-0.10111 0.24021,-0.30773 0.3148,-0.45917 0.1174,-0.23832 0.13549,-0.33593 0.1346,-0.7259 -9.4e-4,-0.41267 -0.0152,-0.47786 -0.16943,-0.77535 -0.24521,-0.47292 -0.7046,-0.89796 -1.6813,-1.55557 -0.92523,-0.62296 -1.35099,-1.0056 -1.80853,-1.62536 -0.79498,-1.07682 -1.0984,-2.21582 -0.91366,-3.42974 0.0525,-0.34501 0.0486,-0.39731 -0.0455,-0.61009 -0.18001,-0.40694 -0.70547,-0.56734 -1.06766,-0.32592 -0.28408,0.18936 -1.60223,1.98998 -2.17437,2.97022 -0.56344,0.96536 -0.87429,1.86456 -0.87429,2.52906 v 0.34016 l -0.18773,0.0283 c -0.39769,0.0599 -0.95001,0.23906 -1.20875,0.39217 -0.77215,0.45691 -1.17177,1.12871 -1.23957,2.08384 l -0.0317,0.4471 -0.36477,0.0811 c -0.20062,0.0446 -0.56344,0.17826 -0.80625,0.29694 -0.80225,0.39213 -1.38677,0.9208 -1.69086,1.52928 -0.478,0.95649 -0.37552,1.96994 0.30223,2.98879 1.15012,1.72897 3.31999,2.81318 6.40389,3.19981 0.71745,0.0899 3.44201,0.13574 4.10507,0.069 z m -3.82973,-1.47861 c -2.21842,-0.21913 -3.89657,-0.89984 -5.0359,-2.04272 -0.56156,-0.5633 -0.78379,-0.96899 -0.81289,-1.48395 -0.0423,-0.7479 0.45505,-1.17547 1.62547,-1.39751 0.29908,-0.0567 0.55754,-0.1032 0.57435,-0.10324 0.0168,-5e-5 0.12796,0.15198 0.24697,0.33784 0.49172,0.76785 1.2297,1.30103 1.86898,1.35029 0.26261,0.0202 0.3316,0.007 0.48172,-0.0945 0.0964,-0.065 0.21829,-0.2061 0.27093,-0.31357 0.0869,-0.17741 0.0892,-0.21398 0.025,-0.3972 -0.0571,-0.16314 -0.14784,-0.25653 -0.47334,-0.48736 -0.55467,-0.39336 -0.9974,-0.8796 -1.21163,-1.33072 -0.14142,-0.29779 -0.17885,-0.44446 -0.20002,-0.78382 -0.0162,-0.26018 -0.003,-0.4859 0.0339,-0.59905 0.0809,-0.24496 0.48042,-0.67975 0.72807,-0.79226 0.3455,-0.15694 0.72984,-0.0944 0.95213,0.15488 0.23905,0.2681 0.55844,0.3213 0.83006,0.13826 0.33324,-0.22457 0.46567,-0.54895 0.34919,-0.85533 -0.0375,-0.0987 0.0563,-0.51395 0.4501,-1.99321 0.27362,-1.02773 0.51096,-1.90238 0.52742,-1.94369 0.0174,-0.0438 0.077,0.0815 0.14278,0.30038 0.54533,1.8142 1.8301,3.31477 3.68615,4.30531 0.23217,0.1239 0.54044,0.33919 0.68505,0.47842 0.22397,0.21564 0.26293,0.28052 0.26293,0.4379 0,0.14197 -0.0419,0.23117 -0.18111,0.38521 -0.34631,0.38333 -1.19824,0.8707 -1.78401,1.02061 -0.14172,0.0363 -0.26526,0.0887 -0.27452,0.11649 -0.021,0.063 0.36339,0.2305 0.77004,0.33548 0.42166,0.10886 0.85945,0.10051 1.22729,-0.0234 l 0.30521,-0.10282 0.12574,0.11533 c 0.47083,0.43188 1.62758,1.74395 1.77163,2.00952 0.15011,0.27674 0.16735,0.34981 0.16735,0.70903 0,0.36094 -0.0169,0.43166 -0.17108,0.71601 -0.57772,1.06548 -2.2723,1.77614 -4.5516,1.90882 -0.88231,0.0514 -2.48846,0.0159 -3.41236,-0.0754 z"
       id="path895" />
    <path
       style="fill:#ffffff;stroke-width:0.00625773"
       d="m 63.37095,219.75724 c 0.003,-0.0229 -0.002,-0.15487 -0.008,-0.21745 -0.0178,-0.20167 -0.0737,-0.42856 -0.15857,-0.64455 -0.0581,-0.1477 -0.17683,-0.36899 -0.28211,-0.52565 -0.46219,-0.68773 -1.27534,-1.3399 -2.34541,-1.8811 l -0.14278,-0.0722 0.0927,-0.095 c 0.17464,-0.17902 0.28406,-0.33249 0.38441,-0.53922 0.0539,-0.11101 0.10865,-0.26663 0.13323,-0.37859 0.0477,-0.21705 0.0475,-0.47096 -4.3e-4,-0.68835 -0.1053,-0.47767 -0.39439,-0.91411 -0.87963,-1.32804 -0.24342,-0.20764 -0.42271,-0.33609 -0.99353,-0.7118 -0.3522,-0.23182 -0.50146,-0.33301 -0.63434,-0.43006 -0.0443,-0.0324 -0.0818,-0.0575 -0.0834,-0.0559 -0.005,0.005 0.27147,0.20962 0.46745,0.34599 0.0396,0.0275 0.16535,0.11371 0.27948,0.19149 0.59392,0.40476 0.92417,0.66309 1.19752,0.93674 0.23121,0.23147 0.35938,0.40704 0.4913,0.67301 0.0641,0.12925 0.0969,0.21893 0.11229,0.30663 0.0162,0.0924 0.0238,0.27901 0.0199,0.4881 -0.006,0.31351 -0.0198,0.38847 -0.109,0.58376 -0.0613,0.13421 -0.16634,0.30307 -0.26665,0.4287 -0.0187,0.0234 -0.082,0.0927 -0.14081,0.15407 l -0.10687,0.11156 0.25482,0.14277 c 0.30353,0.17007 0.47105,0.26732 0.60939,0.35381 0.72869,0.45553 1.28744,0.96523 1.63544,1.49186 0.0901,0.13633 0.1362,0.21703 0.20381,0.35669 0.1492,0.30818 0.22702,0.60518 0.24144,0.92145 0.004,0.081 0.005,0.0892 0.0156,0.0892 0.006,0 0.0119,-0.004 0.0124,-0.008 z"
       id="path973" />
    <path
       style="fill:#ffffff;stroke-width:0.00390625"
       d="m 66.03621,215.45311 v -2.58984 h -3.28388 -3.28387 l 0.07,0.0474 c 0.37402,0.25331 0.61669,0.44461 0.82926,0.65373 0.24007,0.23618 0.39574,0.44435 0.52144,0.6973 0.10152,0.2043 0.16227,0.40297 0.1887,0.61719 0.01,0.0809 0.01,0.28386 -5e-5,0.36132 -0.0206,0.15963 -0.0527,0.28684 -0.10676,0.42383 -0.10184,0.25786 -0.26336,0.49446 -0.48213,0.70623 -0.0245,0.0237 -0.0436,0.0439 -0.0426,0.0449 10e-4,9.7e-4 0.0582,0.0301 0.12695,0.0647 0.61728,0.31083 1.15847,0.66512 1.59375,1.04334 0.16786,0.14585 0.34688,0.32351 0.47126,0.46768 l 0.0444,0.0514 1.67675,3.3e-4 1.67676,3.4e-4 z"
       id="path1012" />
    <path
       style="fill:#ffffff;stroke-width:0.00390625"
       d="m 66.03622,215.45313 v -2.58985 h -3.28375 -3.28374 l 0.10114,0.069 c 0.36555,0.24959 0.58892,0.42663 0.79977,0.634 0.1559,0.15332 0.27144,0.29029 0.37239,0.44149 0.16354,0.24497 0.27279,0.50562 0.31929,0.76172 0.0194,0.10707 0.0235,0.15748 0.0235,0.28907 0,0.0945 -0.002,0.13621 -0.007,0.17968 -0.0344,0.27929 -0.12627,0.52577 -0.28659,0.7693 -0.0788,0.11973 -0.15292,0.21027 -0.26635,0.32544 -0.0439,0.0446 -0.0791,0.0817 -0.0782,0.0826 8.9e-4,8.3e-4 0.0429,0.0221 0.0934,0.0473 0.64604,0.32246 1.22164,0.70042 1.66189,1.09125 0.16749,0.14871 0.35173,0.3343 0.45724,0.4606 l 0.0234,0.0281 1.67675,8e-5 1.67676,7e-5 z"
       id="path1051" />
    <path
       style="fill:#ffffff;stroke-width:0.00390625"
       d="m 62.59252,218.00879 c -0.36821,-0.41662 -0.82761,-0.78891 -1.42154,-1.152 -0.10903,-0.0666 -0.19672,-0.11705 -0.49799,-0.2862 -0.15355,-0.0862 -0.28037,-0.15801 -0.28182,-0.15956 -0.001,-0.002 0.0451,-0.0521 0.10344,-0.1122 0.10775,-0.11109 0.14463,-0.15349 0.20046,-0.23047 0.14852,-0.20478 0.25659,-0.41828 0.29176,-0.57639 0.0234,-0.1054 0.0297,-0.19987 0.0298,-0.44705 5e-5,-0.39882 -0.0156,-0.47703 -0.14748,-0.73624 -0.12228,-0.24038 -0.24661,-0.4091 -0.46323,-0.62861 -0.17226,-0.17456 -0.36309,-0.33732 -0.63588,-0.54233 -0.093,-0.0699 -0.29621,-0.21656 -0.3576,-0.25809 l -0.0242,-0.0164 -1.20332,9.8e-4 -1.20333,9.8e-4 0.0615,0.0571 c 0.50517,0.46856 1.05406,0.85876 1.71387,1.21838 0.20839,0.11357 0.36568,0.21431 0.53711,0.34398 0.10109,0.0765 0.15814,0.12622 0.24805,0.21633 0.17034,0.17073 0.20196,0.22935 0.20232,0.37519 3.7e-4,0.14576 -0.0362,0.22793 -0.16755,0.37695 -0.20922,0.23729 -0.619,0.52317 -1.07969,0.75323 -0.2505,0.12509 -0.46287,0.21046 -0.6623,0.26625 -0.16908,0.0473 -0.25443,0.0777 -0.30025,0.10712 -0.0304,0.0195 -0.0328,0.0236 -0.0236,0.0408 0.0346,0.0646 0.339,0.19605 0.6755,0.29167 0.33273,0.0945 0.63354,0.12133 0.94199,0.0839 0.15642,-0.019 0.24856,-0.0421 0.48585,-0.12157 0.10205,-0.0342 0.18842,-0.0617 0.19194,-0.0611 0.008,10e-4 0.10972,0.0943 0.22179,0.20187 0.19091,0.18327 0.54318,0.55905 0.87097,0.9291 l 0.0874,0.0986 h 0.81816 0.81816 z"
       id="path1090" />
    <path
       style="fill:#ffffff;stroke-width:0.00390625"
       d="m 62.59439,218.01074 c -0.39896,-0.4561 -0.95106,-0.88788 -1.63435,-1.27815 -0.0644,-0.0368 -0.2187,-0.1239 -0.34277,-0.19353 -0.12408,-0.0696 -0.22559,-0.12815 -0.22559,-0.13004 0,-0.002 0.047,-0.0521 0.10452,-0.1115 0.10633,-0.10994 0.14328,-0.15252 0.19887,-0.22916 0.14883,-0.2052 0.25656,-0.4181 0.29184,-0.57677 0.0233,-0.10477 0.0296,-0.19963 0.0297,-0.44526 1.3e-4,-0.39978 -0.0153,-0.47735 -0.14645,-0.73578 -0.13338,-0.26283 -0.28232,-0.4576 -0.53928,-0.70519 -0.20593,-0.19842 -0.48492,-0.42063 -0.85912,-0.68429 l -0.082,-0.0578 h -1.20502 -1.20501 l 0.0116,0.0112 c 0.0287,0.0277 0.13075,0.12068 0.18948,0.17261 0.44664,0.39498 0.95322,0.75045 1.49404,1.04839 0.22339,0.12306 0.26313,0.1461 0.36328,0.21057 0.12444,0.0801 0.27148,0.18687 0.36719,0.26659 0.064,0.0533 0.205,0.19403 0.24683,0.24634 0.0653,0.0817 0.085,0.13085 0.093,0.23175 0.003,0.0378 -0.004,0.11109 -0.0135,0.14958 -0.0244,0.0953 -0.091,0.19164 -0.22466,0.32504 -0.29031,0.28967 -0.84071,0.63003 -1.35172,0.83588 -0.14137,0.057 -0.23325,0.0881 -0.37339,0.12659 -0.0872,0.0239 -0.13671,0.0404 -0.19322,0.0643 -0.0428,0.0181 -0.0809,0.0427 -0.0828,0.0534 -0.002,0.0107 0.0144,0.031 0.0409,0.0508 0.0335,0.025 0.17089,0.0931 0.25497,0.12645 0.22933,0.0909 0.48369,0.16453 0.68164,0.19741 0.1509,0.0251 0.26662,0.0333 0.42382,0.0303 0.12155,-0.002 0.19418,-0.008 0.29187,-0.0242 0.13765,-0.0223 0.19463,-0.0377 0.42103,-0.11387 0.13457,-0.0453 0.18185,-0.0596 0.18833,-0.0572 0.0103,0.004 0.11122,0.096 0.22701,0.20747 0.18074,0.17396 0.51611,0.53127 0.83207,0.88653 l 0.119,0.13379 h 0.81798 0.81799 z"
       id="path1129" />
    <use
       id="use1318"
       inkscape:spray-origin="#path1129"
       xlink:href="#path1129"
       x="0"
       y="0"
       width="100%"
       height="100%"
       transform="translate(-1.32808,0.77986)" />
    <use
       id="use1320"
       inkscape:spray-origin="#path1129"
       xlink:href="#path1129"
       x="0"
       y="0"
       width="100%"
       height="100%"
       transform="translate(-1.61134,-1.89432)" />
    <use
       id="use1322"
       inkscape:spray-origin="#path1129"
       xlink:href="#path1129"
       x="0"
       y="0"
       width="100%"
       height="100%"
       transform="translate(-0.87286,-0.09334)" />
    <use
       id="use1324"
       inkscape:spray-origin="#path1129"
       xlink:href="#path1129"
       x="0"
       y="0"
       width="100%"
       height="100%"
       transform="translate(-1.9267,1.6089)" />
    <use
       id="use1326"
       inkscape:spray-origin="#path1129"
       xlink:href="#path1129"
       x="0"
       y="0"
       width="100%"
       height="100%"
       transform="translate(0.54074,1.9024)" />
    <use
       id="use1328"
       inkscape:spray-origin="#path1129"
       xlink:href="#path1129"
       x="0"
       y="0"
       width="100%"
       height="100%"
       transform="translate(0.92632,3.41488)" />
    <use
       id="use1330"
       inkscape:spray-origin="#path1129"
       xlink:href="#path1129"
       x="0"
       y="0"
       width="100%"
       height="100%"
       transform="translate(1.28614,1.94112)" />
    <use
       id="use1332"
       inkscape:spray-origin="#path1129"
       xlink:href="#path1129"
       x="0"
       y="0"
       width="100%"
       height="100%"
       transform="translate(-0.29702,0.47116)" />
    <use
       id="use1334"
       inkscape:spray-origin="#path1129"
       xlink:href="#path1129"
       x="0"
       y="0"
       width="100%"
       height="100%"
       transform="translate(-0.97776,0.53908)" />
    <use
       id="use1336"
       inkscape:spray-origin="#path1129"
       xlink:href="#path1129"
       x="0"
       y="0"
       width="100%"
       height="100%"
       transform="translate(-0.45834,-2.52934)" />
    <use
       id="use1338"
       inkscape:spray-origin="#path1129"
       xlink:href="#path1129"
       x="0"
       y="0"
       width="100%"
       height="100%"
       transform="translate(-0.32964,-0.6514)" />
    <use
       id="use1340"
       inkscape:spray-origin="#path1129"
       xlink:href="#path1129"
       x="0"
       y="0"
       width="100%"
       height="100%"
       transform="translate(-0.03466,-2.82644)" />
    <use
       id="use1342"
       inkscape:spray-origin="#path1129"
       xlink:href="#path1129"
       x="0"
       y="0"
       width="100%"
       height="100%"
       transform="translate(0.53608,2.31082)" />
    <use
       id="use1344"
       inkscape:spray-origin="#path1129"
       xlink:href="#path1129"
       x="0"
       y="0"
       width="100%"
       height="100%"
       transform="translate(3.32982,3.3471)" />
    <use
       id="use1346"
       inkscape:spray-origin="#path1129"
       xlink:href="#path1129"
       x="0"
       y="0"
       width="100%"
       height="100%"
       transform="translate(0.38946,0.43712)" />
    <use
       id="use1348"
       inkscape:spray-origin="#path1129"
       xlink:href="#path1129"
       x="0"
       y="0"
       width="100%"
       height="100%"
       transform="translate(-0.69244,1.25548)" />
    <use
       id="use1350"
       inkscape:spray-origin="#path1129"
       xlink:href="#path1129"
       x="0"
       y="0"
       width="100%"
       height="100%"
       transform="translate(1.03768,-0.58608)" />
    <use
       id="use1352"
       inkscape:spray-origin="#path1129"
       xlink:href="#path1129"
       x="0"
       y="0"
       width="100%"
       height="100%"
       transform="translate(0.97132,-0.71052)" />
    <use
       id="use1354"
       inkscape:spray-origin="#path1129"
       xlink:href="#path1129"
       x="0"
       y="0"
       width="100%"
       height="100%"
       transform="translate(-0.31456,1.8394)" />
    <use
       id="use1356"
       inkscape:spray-origin="#path1129"
       xlink:href="#path1129"
       x="0"
       y="0"
       width="100%"
       height="100%"
       transform="translate(1.80128,2.53236)" />
    <use
       id="use1358"
       inkscape:spray-origin="#path1129"
       xlink:href="#path1129"
       x="0"
       y="0"
       width="100%"
       height="100%"
       transform="translate(0.94254,0.2759)" />
    <use
       id="use1360"
       inkscape:spray-origin="#path1129"
       xlink:href="#path1129"
       x="0"
       y="0"
       width="100%"
       height="100%"
       transform="translate(-1.2896,-1.4558)" />
    <use
       id="use1362"
       inkscape:spray-origin="#path1129"
       xlink:href="#path1129"
       x="0"
       y="0"
       width="100%"
       height="100%"
       transform="translate(3.48362,1.0887)" />
    <use
       id="use1364"
       inkscape:spray-origin="#path1129"
       xlink:href="#path1129"
       x="0"
       y="0"
       width="100%"
       height="100%"
       transform="translate(2.72652,4.47706)" />
    <use
       id="use1366"
       inkscape:spray-origin="#path1129"
       xlink:href="#path1129"
       x="0"
       y="0"
       width="100%"
       height="100%"
       transform="translate(1.0492,4.13132)" />
    <use
       id="use1368"
       inkscape:spray-origin="#path1129"
       xlink:href="#path1129"
       x="0"
       y="0"
       width="100%"
       height="100%"
       transform="translate(2.78688,7.34352)" />
    <use
       id="use1370"
       inkscape:spray-origin="#path1129"
       xlink:href="#path1129"
       x="0"
       y="0"
       width="100%"
       height="100%"
       transform="translate(3.98202,2.67736)" />
    <use
       id="use1372"
       inkscape:spray-origin="#path1129"
       xlink:href="#path1129"
       x="0"
       y="0"
       width="100%"
       height="100%"
       transform="translate(1.05426,2.26134)" />
    <use
       id="use1374"
       inkscape:spray-origin="#path1129"
       xlink:href="#path1129"
       x="0"
       y="0"
       width="100%"
       height="100%"
       transform="translate(2.9003,4.93032)" />
    <use
       id="use1376"
       inkscape:spray-origin="#path1129"
       xlink:href="#path1129"
       x="0"
       y="0"
       width="100%"
       height="100%"
       transform="translate(2.44024,6.1076)" />
    <use
       id="use1378"
       inkscape:spray-origin="#path1129"
       xlink:href="#path1129"
       x="0"
       y="0"
       width="100%"
       height="100%"
       transform="translate(0.77326,7.4024)" />
    <use
       id="use1380"
       inkscape:spray-origin="#path1129"
       xlink:href="#path1129"
       x="0"
       y="0"
       width="100%"
       height="100%"
       transform="translate(-3.46636,5.30472)" />
    <use
       id="use1382"
       inkscape:spray-origin="#path1129"
       xlink:href="#path1129"
       x="0"
       y="0"
       width="100%"
       height="100%"
       transform="translate(-2.2753,3.294)" />
    <use
       id="use1384"
       inkscape:spray-origin="#path1129"
       xlink:href="#path1129"
       x="0"
       y="0"
       width="100%"
       height="100%"
       transform="translate(-0.99402,1.82498)" />
    <use
       id="use1386"
       inkscape:spray-origin="#path1129"
       xlink:href="#path1129"
       x="0"
       y="0"
       width="100%"
       height="100%"
       transform="translate(2.20634,6.28686)" />
    <use
       id="use1388"
       inkscape:spray-origin="#path1129"
       xlink:href="#path1129"
       x="0"
       y="0"
       width="100%"
       height="100%"
       transform="translate(1.74986,5.9926)" />
    <use
       id="use1390"
       inkscape:spray-origin="#path1129"
       xlink:href="#path1129"
       x="0"
       y="0"
       width="100%"
       height="100%"
       transform="translate(1.28464,9.07562)" />
    <use
       id="use1392"
       inkscape:spray-origin="#path1129"
       xlink:href="#path1129"
       x="0"
       y="0"
       width="100%"
       height="100%"
       transform="translate(-1.87958,6.22738)" />
    <use
       id="use1394"
       inkscape:spray-origin="#path1129"
       xlink:href="#path1129"
       x="0"
       y="0"
       width="100%"
       height="100%"
       transform="translate(-1.2993,4.34476)" />
    <use
       id="use1396"
       inkscape:spray-origin="#path1129"
       xlink:href="#path1129"
       x="0"
       y="0"
       width="100%"
       height="100%"
       transform="translate(-1.58402,4.8994)" />
    <use
       id="use1398"
       inkscape:spray-origin="#path1129"
       xlink:href="#path1129"
       x="0"
       y="0"
       width="100%"
       height="100%"
       transform="translate(-2.4489,4.9164)" />
    <use
       id="use1400"
       inkscape:spray-origin="#path1129"
       xlink:href="#path1129"
       x="0"
       y="0"
       width="100%"
       height="100%"
       transform="translate(-1.80074,6.97554)" />
    <use
       id="use1402"
       inkscape:spray-origin="#path1129"
       xlink:href="#path1129"
       x="0"
       y="0"
       width="100%"
       height="100%"
       transform="translate(-3.16874,7.40868)" />
    <use
       id="use1404"
       inkscape:spray-origin="#path1129"
       xlink:href="#path1129"
       x="0"
       y="0"
       width="100%"
       height="100%"
       transform="translate(-1.3398,6.01628)" />
    <use
       id="use1406"
       inkscape:spray-origin="#path1129"
       xlink:href="#path1129"
       x="0"
       y="0"
       width="100%"
       height="100%"
       transform="translate(-2.80134,8.15592)" />
    <use
       id="use1408"
       inkscape:spray-origin="#path1129"
       xlink:href="#path1129"
       x="0"
       y="0"
       width="100%"
       height="100%"
       transform="translate(-1.44854,5.14182)" />
    <use
       id="use1410"
       inkscape:spray-origin="#path1129"
       xlink:href="#path1129"
       x="0"
       y="0"
       width="100%"
       height="100%"
       transform="translate(0.92836,5.35408)" />
    <use
       id="use1412"
       inkscape:spray-origin="#path1129"
       xlink:href="#path1129"
       x="0"
       y="0"
       width="100%"
       height="100%"
       transform="translate(-1.0906,8.1142)" />
    <use
       id="use1414"
       inkscape:spray-origin="#path1129"
       xlink:href="#path1129"
       x="0"
       y="0"
       width="100%"
       height="100%"
       transform="translate(0.15684,7.40486)" />
    <use
       id="use1416"
       inkscape:spray-origin="#path1129"
       xlink:href="#path1129"
       x="0"
       y="0"
       width="100%"
       height="100%"
       transform="translate(1.98204,6.07054)" />
    <use
       id="use1418"
       inkscape:spray-origin="#path1129"
       xlink:href="#path1129"
       x="0"
       y="0"
       width="100%"
       height="100%"
       transform="translate(1.73258,6.4427)" />
    <use
       id="use1420"
       inkscape:spray-origin="#path1129"
       xlink:href="#path1129"
       x="0"
       y="0"
       width="100%"
       height="100%"
       transform="translate(2.86658,8.06402)" />
    <use
       id="use1422"
       inkscape:spray-origin="#path1129"
       xlink:href="#path1129"
       x="0"
       y="0"
       width="100%"
       height="100%"
       transform="translate(1.47514,7.5082)" />
    <use
       id="use1424"
       inkscape:spray-origin="#path1129"
       xlink:href="#path1129"
       x="0"
       y="0"
       width="100%"
       height="100%"
       transform="translate(-2.93564,7.65732)" />
    <use
       id="use1426"
       inkscape:spray-origin="#path1129"
       xlink:href="#path1129"
       x="0"
       y="0"
       width="100%"
       height="100%"
       transform="translate(-1.34312,9.22278)" />
    <use
       id="use1428"
       inkscape:spray-origin="#path1129"
       xlink:href="#path1129"
       x="0"
       y="0"
       width="100%"
       height="100%"
       transform="translate(-0.6236,7.96554)" />
    <use
       id="use1430"
       inkscape:spray-origin="#path1129"
       xlink:href="#path1129"
       x="0"
       y="0"
       width="100%"
       height="100%"
       transform="translate(-0.07272,9.20736)" />
    <use
       id="use1432"
       inkscape:spray-origin="#path1129"
       xlink:href="#path1129"
       x="0"
       y="0"
       width="100%"
       height="100%"
       transform="translate(1.0709,10.11322)" />
    <use
       id="use1434"
       inkscape:spray-origin="#path1129"
       xlink:href="#path1129"
       x="0"
       y="0"
       width="100%"
       height="100%"
       transform="translate(-0.50088,9.58196)" />
    <use
       id="use1436"
       inkscape:spray-origin="#path1129"
       xlink:href="#path1129"
       x="0"
       y="0"
       width="100%"
       height="100%"
       transform="translate(-2.28156,6.76568)" />
    <use
       id="use1438"
       inkscape:spray-origin="#path1129"
       xlink:href="#path1129"
       x="0"
       y="0"
       width="100%"
       height="100%"
       transform="translate(-1.47298,5.34692)" />
    <use
       id="use1440"
       inkscape:spray-origin="#path1129"
       xlink:href="#path1129"
       x="0"
       y="0"
       width="100%"
       height="100%"
       transform="translate(0.9008,7.37156)" />
    <use
       id="use1442"
       inkscape:spray-origin="#path1129"
       xlink:href="#path1129"
       x="0"
       y="0"
       width="100%"
       height="100%"
       transform="translate(-2.19088,9.28244)" />
    <use
       id="use1444"
       inkscape:spray-origin="#path1129"
       xlink:href="#path1129"
       x="0"
       y="0"
       width="100%"
       height="100%"
       transform="translate(-2.48954,5.86088)" />
    <use
       id="use1446"
       inkscape:spray-origin="#path1129"
       xlink:href="#path1129"
       x="0"
       y="0"
       width="100%"
       height="100%"
       transform="translate(-4.34748,5.07976)" />
    <use
       id="use1448"
       inkscape:spray-origin="#path1129"
       xlink:href="#path1129"
       x="0"
       y="0"
       width="100%"
       height="100%"
       transform="translate(-6.53454,4.27938)" />
    <use
       id="use1450"
       inkscape:spray-origin="#path1129"
       xlink:href="#path1129"
       x="0"
       y="0"
       width="100%"
       height="100%"
       transform="translate(-3.64262,6.87874)" />
    <use
       id="use1452"
       inkscape:spray-origin="#path1129"
       xlink:href="#path1129"
       x="0"
       y="0"
       width="100%"
       height="100%"
       transform="translate(-2.87588,7.6148)" />
    <use
       id="use1454"
       inkscape:spray-origin="#path1129"
       xlink:href="#path1129"
       x="0"
       y="0"
       width="100%"
       height="100%"
       transform="translate(-5.06784,6.07032)" />
    <use
       id="use1456"
       inkscape:spray-origin="#path1129"
       xlink:href="#path1129"
       x="0"
       y="0"
       width="100%"
       height="100%"
       transform="translate(-6.70526,4.96308)" />
    <use
       id="use1458"
       inkscape:spray-origin="#path1129"
       xlink:href="#path1129"
       x="0"
       y="0"
       width="100%"
       height="100%"
       transform="translate(-7.23108,5.29866)" />
    <use
       id="use1460"
       inkscape:spray-origin="#path1129"
       xlink:href="#path1129"
       x="0"
       y="0"
       width="100%"
       height="100%"
       transform="translate(-4.30076,3.87424)" />
    <use
       id="use1462"
       inkscape:spray-origin="#path1129"
       xlink:href="#path1129"
       x="0"
       y="0"
       width="100%"
       height="100%"
       transform="translate(-6.31884,5.88132)" />
    <use
       id="use1464"
       inkscape:spray-origin="#path1129"
       xlink:href="#path1129"
       x="0"
       y="0"
       width="100%"
       height="100%"
       transform="translate(-7.54714,3.8577)" />
    <use
       id="use1466"
       inkscape:spray-origin="#path1129"
       xlink:href="#path1129"
       x="0"
       y="0"
       width="100%"
       height="100%"
       transform="translate(-7.30264,1.54212)" />
    <use
       id="use1468"
       inkscape:spray-origin="#path1129"
       xlink:href="#path1129"
       x="0"
       y="0"
       width="100%"
       height="100%"
       transform="translate(-7.50546,1.38218)" />
    <use
       id="use1470"
       inkscape:spray-origin="#path1129"
       xlink:href="#path1129"
       x="0"
       y="0"
       width="100%"
       height="100%"
       transform="translate(-7.69478,6.41784)" />
    <use
       id="use1472"
       inkscape:spray-origin="#path1129"
       xlink:href="#path1129"
       x="0"
       y="0"
       width="100%"
       height="100%"
       transform="translate(-9.37518,7.0743)" />
    <use
       id="use1474"
       inkscape:spray-origin="#path1129"
       xlink:href="#path1129"
       x="0"
       y="0"
       width="100%"
       height="100%"
       transform="translate(-7.995,7.5793)" />
    <use
       id="use1476"
       inkscape:spray-origin="#path1129"
       xlink:href="#path1129"
       x="0"
       y="0"
       width="100%"
       height="100%"
       transform="translate(-10.2373,5.63172)" />
    <use
       id="use1478"
       inkscape:spray-origin="#path1129"
       xlink:href="#path1129"
       x="0"
       y="0"
       width="100%"
       height="100%"
       transform="translate(-10.95418,5.49232)" />
    <use
       id="use1480"
       inkscape:spray-origin="#path1129"
       xlink:href="#path1129"
       x="0"
       y="0"
       width="100%"
       height="100%"
       transform="translate(-12.5436,3.2357)" />
    <use
       id="use1482"
       inkscape:spray-origin="#path1129"
       xlink:href="#path1129"
       x="0"
       y="0"
       width="100%"
       height="100%"
       transform="translate(-10.06128,3.0259)" />
    <use
       id="use1484"
       inkscape:spray-origin="#path1129"
       xlink:href="#path1129"
       x="0"
       y="0"
       width="100%"
       height="100%"
       transform="translate(-9.4846,5.57852)" />
    <use
       id="use1486"
       inkscape:spray-origin="#path1129"
       xlink:href="#path1129"
       x="0"
       y="0"
       width="100%"
       height="100%"
       transform="translate(-8.84442,5.41136)" />
    <use
       id="use1488"
       inkscape:spray-origin="#path1129"
       xlink:href="#path1129"
       x="0"
       y="0"
       width="100%"
       height="100%"
       transform="translate(-9.43728,4.6439)" />
    <use
       id="use1490"
       inkscape:spray-origin="#path1129"
       xlink:href="#path1129"
       x="0"
       y="0"
       width="100%"
       height="100%"
       transform="translate(-10.70578,5.01042)" />
    <use
       id="use1492"
       inkscape:spray-origin="#path1129"
       xlink:href="#path1129"
       x="0"
       y="0"
       width="100%"
       height="100%"
       transform="translate(-11.72176,3.90044)" />
    <use
       id="use1494"
       inkscape:spray-origin="#path1129"
       xlink:href="#path1129"
       x="0"
       y="0"
       width="100%"
       height="100%"
       transform="translate(-11.63688,0.1652)" />
    <use
       id="use1496"
       inkscape:spray-origin="#path1129"
       xlink:href="#path1129"
       x="0"
       y="0"
       width="100%"
       height="100%"
       transform="translate(-9.72912,3.88776)" />
    <use
       id="use1498"
       inkscape:spray-origin="#path1129"
       xlink:href="#path1129"
       x="0"
       y="0"
       width="100%"
       height="100%"
       transform="translate(-11.31966,2.57262)" />
    <use
       id="use1500"
       inkscape:spray-origin="#path1129"
       xlink:href="#path1129"
       x="0"
       y="0"
       width="100%"
       height="100%"
       transform="translate(-11.04244,4.91784)" />
    <use
       id="use1502"
       inkscape:spray-origin="#path1129"
       xlink:href="#path1129"
       x="0"
       y="0"
       width="100%"
       height="100%"
       transform="translate(-12.52038,3.35878)" />
    <use
       id="use1504"
       inkscape:spray-origin="#path1129"
       xlink:href="#path1129"
       x="0"
       y="0"
       width="100%"
       height="100%"
       transform="translate(-12.46966,3.8661)" />
    <use
       id="use1506"
       inkscape:spray-origin="#path1129"
       xlink:href="#path1129"
       x="0"
       y="0"
       width="100%"
       height="100%"
       transform="translate(-11.92756,3.19992)" />
    <use
       id="use1508"
       inkscape:spray-origin="#path1129"
       xlink:href="#path1129"
       x="0"
       y="0"
       width="100%"
       height="100%"
       transform="translate(-11.00594,2.85708)" />
    <use
       id="use1510"
       inkscape:spray-origin="#path1129"
       xlink:href="#path1129"
       x="0"
       y="0"
       width="100%"
       height="100%"
       transform="translate(-11.8359,3.82202)" />
    <use
       id="use1512"
       inkscape:spray-origin="#path1129"
       xlink:href="#path1129"
       x="0"
       y="0"
       width="100%"
       height="100%"
       transform="translate(-9.71172,4.29934)" />
    <use
       id="use1514"
       inkscape:spray-origin="#path1129"
       xlink:href="#path1129"
       x="0"
       y="0"
       width="100%"
       height="100%"
       transform="translate(-12.10022,5.4119)" />
    <use
       id="use1516"
       inkscape:spray-origin="#path1129"
       xlink:href="#path1129"
       x="0"
       y="0"
       width="100%"
       height="100%"
       transform="translate(-11.78146,4.6502)" />
    <use
       id="use1518"
       inkscape:spray-origin="#path1129"
       xlink:href="#path1129"
       x="0"
       y="0"
       width="100%"
       height="100%"
       transform="translate(-11.69218,0.72834)" />
    <use
       id="use1520"
       inkscape:spray-origin="#path1129"
       xlink:href="#path1129"
       x="0"
       y="0"
       width="100%"
       height="100%"
       transform="translate(-9.1078,0.89844)" />
    <use
       id="use1522"
       inkscape:spray-origin="#path1129"
       xlink:href="#path1129"
       x="0"
       y="0"
       width="100%"
       height="100%"
       transform="translate(-10.88282,4.14056)" />
    <use
       id="use1524"
       inkscape:spray-origin="#path1129"
       xlink:href="#path1129"
       x="0"
       y="0"
       width="100%"
       height="100%"
       transform="translate(-11.27884,2.10496)" />
    <use
       id="use1526"
       inkscape:spray-origin="#path1129"
       xlink:href="#path1129"
       x="0"
       y="0"
       width="100%"
       height="100%"
       transform="translate(-12.67188,1.38372)" />
    <use
       id="use1528"
       inkscape:spray-origin="#path1129"
       xlink:href="#path1129"
       x="0"
       y="0"
       width="100%"
       height="100%"
       transform="translate(-11.01888,-0.18266)" />
    <use
       id="use1530"
       inkscape:spray-origin="#path1129"
       xlink:href="#path1129"
       x="0"
       y="0"
       width="100%"
       height="100%"
       transform="translate(-11.1871,0.31954)" />
    <use
       id="use1532"
       inkscape:spray-origin="#path1129"
       xlink:href="#path1129"
       x="0"
       y="0"
       width="100%"
       height="100%"
       transform="translate(-7.9197,0.89182)" />
    <use
       id="use1534"
       inkscape:spray-origin="#path1129"
       xlink:href="#path1129"
       x="0"
       y="0"
       width="100%"
       height="100%"
       transform="translate(-7.45536,3.0138)" />
    <use
       id="use1536"
       inkscape:spray-origin="#path1129"
       xlink:href="#path1129"
       x="0"
       y="0"
       width="100%"
       height="100%"
       transform="translate(-8.9561,3.40628)" />
    <use
       id="use1538"
       inkscape:spray-origin="#path1129"
       xlink:href="#path1129"
       x="0"
       y="0"
       width="100%"
       height="100%"
       transform="translate(-7.26158,-0.11624)" />
    <use
       id="use1540"
       inkscape:spray-origin="#path1129"
       xlink:href="#path1129"
       x="0"
       y="0"
       width="100%"
       height="100%"
       transform="translate(-5.04362,1.67348)" />
    <use
       id="use1542"
       inkscape:spray-origin="#path1129"
       xlink:href="#path1129"
       x="0"
       y="0"
       width="100%"
       height="100%"
       transform="translate(-4.59954,0.42376)" />
    <use
       id="use1544"
       inkscape:spray-origin="#path1129"
       xlink:href="#path1129"
       x="0"
       y="0"
       width="100%"
       height="100%"
       transform="translate(-4.68902,2.80622)" />
    <use
       id="use1546"
       inkscape:spray-origin="#path1129"
       xlink:href="#path1129"
       x="0"
       y="0"
       width="100%"
       height="100%"
       transform="translate(-7.48428,0.09898)" />
    <use
       id="use1548"
       inkscape:spray-origin="#path1129"
       xlink:href="#path1129"
       x="0"
       y="0"
       width="100%"
       height="100%"
       transform="translate(-9.15372,0.69032)" />
    <use
       id="use1550"
       inkscape:spray-origin="#path1129"
       xlink:href="#path1129"
       x="0"
       y="0"
       width="100%"
       height="100%"
       transform="translate(-6.70042,-3.47706)" />
    <use
       id="use1552"
       inkscape:spray-origin="#path1129"
       xlink:href="#path1129"
       x="0"
       y="0"
       width="100%"
       height="100%"
       transform="translate(-3.3975,-2.1319)" />
    <use
       id="use1554"
       inkscape:spray-origin="#path1129"
       xlink:href="#path1129"
       x="0"
       y="0"
       width="100%"
       height="100%"
       transform="translate(-6.98568,-0.4795)" />
    <use
       id="use1556"
       inkscape:spray-origin="#path1129"
       xlink:href="#path1129"
       x="0"
       y="0"
       width="100%"
       height="100%"
       transform="translate(-5.63402,0.15082)" />
    <use
       id="use1558"
       inkscape:spray-origin="#path1129"
       xlink:href="#path1129"
       x="0"
       y="0"
       width="100%"
       height="100%"
       transform="translate(-5.51118,0.00826)" />
    <use
       id="use1560"
       inkscape:spray-origin="#path1129"
       xlink:href="#path1129"
       x="0"
       y="0"
       width="100%"
       height="100%"
       transform="translate(-6.40682,-0.7479)" />
    <use
       id="use1562"
       inkscape:spray-origin="#path1129"
       xlink:href="#path1129"
       x="0"
       y="0"
       width="100%"
       height="100%"
       transform="translate(-5.55014,-3.17042)" />
    <use
       id="use1564"
       inkscape:spray-origin="#path1129"
       xlink:href="#path1129"
       x="0"
       y="0"
       width="100%"
       height="100%"
       transform="translate(-4.45992,-1.92606)" />
    <use
       id="use1566"
       inkscape:spray-origin="#path1129"
       xlink:href="#path1129"
       x="0"
       y="0"
       width="100%"
       height="100%"
       transform="translate(-4.32474,-1.051)" />
    <use
       id="use1568"
       inkscape:spray-origin="#path1129"
       xlink:href="#path1129"
       x="0"
       y="0"
       width="100%"
       height="100%"
       transform="translate(-5.7148,-0.22274)" />
    <use
       id="use1570"
       inkscape:spray-origin="#path1129"
       xlink:href="#path1129"
       x="0"
       y="0"
       width="100%"
       height="100%"
       transform="translate(-7.48326,-0.1825)" />
    <use
       id="use1572"
       inkscape:spray-origin="#path1129"
       xlink:href="#path1129"
       x="0"
       y="0"
       width="100%"
       height="100%"
       transform="translate(-9.1019,-2.35378)" />
    <use
       id="use1574"
       inkscape:spray-origin="#path1129"
       xlink:href="#path1129"
       x="0"
       y="0"
       width="100%"
       height="100%"
       transform="translate(-7.35652,-3.42304)" />
    <use
       id="use1576"
       inkscape:spray-origin="#path1129"
       xlink:href="#path1129"
       x="0"
       y="0"
       width="100%"
       height="100%"
       transform="translate(-4.59514,-1.88368)" />
    <use
       id="use1578"
       inkscape:spray-origin="#path1129"
       xlink:href="#path1129"
       x="0"
       y="0"
       width="100%"
       height="100%"
       transform="translate(-3.9841,-2.2083)" />
    <use
       id="use1580"
       inkscape:spray-origin="#path1129"
       xlink:href="#path1129"
       x="0"
       y="0"
       width="100%"
       height="100%"
       transform="translate(-3.9816,-1.82712)" />
    <use
       id="use1582"
       inkscape:spray-origin="#path1129"
       xlink:href="#path1129"
       x="0"
       y="0"
       width="100%"
       height="100%"
       transform="translate(-7.472,-3.07126)" />
    <use
       id="use1584"
       inkscape:spray-origin="#path1129"
       xlink:href="#path1129"
       x="0"
       y="0"
       width="100%"
       height="100%"
       transform="translate(-4.37412,-5.17974)" />
    <use
       id="use1586"
       inkscape:spray-origin="#path1129"
       xlink:href="#path1129"
       x="0"
       y="0"
       width="100%"
       height="100%"
       transform="translate(-3.74078,-7.73398)" />
    <use
       id="use1588"
       inkscape:spray-origin="#path1129"
       xlink:href="#path1129"
       x="0"
       y="0"
       width="100%"
       height="100%"
       transform="translate(-2.78394,-4.81676)" />
    <use
       id="use1590"
       inkscape:spray-origin="#path1129"
       xlink:href="#path1129"
       x="0"
       y="0"
       width="100%"
       height="100%"
       transform="translate(-5.43378,-4.14566)" />
    <use
       id="use1592"
       inkscape:spray-origin="#path1129"
       xlink:href="#path1129"
       x="0"
       y="0"
       width="100%"
       height="100%"
       transform="translate(-3.83528,-7.63828)" />
    <use
       id="use1594"
       inkscape:spray-origin="#path1129"
       xlink:href="#path1129"
       x="0"
       y="0"
       width="100%"
       height="100%"
       transform="translate(-2.76202,-9.43542)" />
    <use
       id="use1596"
       inkscape:spray-origin="#path1129"
       xlink:href="#path1129"
       x="0"
       y="0"
       width="100%"
       height="100%"
       transform="translate(-3.0943,-9.27164)" />
    <use
       id="use1598"
       inkscape:spray-origin="#path1129"
       xlink:href="#path1129"
       x="0"
       y="0"
       width="100%"
       height="100%"
       transform="translate(0.17562,-8.06462)" />
    <use
       id="use1600"
       inkscape:spray-origin="#path1129"
       xlink:href="#path1129"
       x="0"
       y="0"
       width="100%"
       height="100%"
       transform="translate(-2.40292,-8.42684)" />
    <use
       id="use1602"
       inkscape:spray-origin="#path1129"
       xlink:href="#path1129"
       x="0"
       y="0"
       width="100%"
       height="100%"
       transform="translate(-3.73478,-7.8779)" />
    <use
       id="use1604"
       inkscape:spray-origin="#path1129"
       xlink:href="#path1129"
       x="0"
       y="0"
       width="100%"
       height="100%"
       transform="translate(-3.26366,-7.18208)" />
    <use
       id="use1606"
       inkscape:spray-origin="#path1129"
       xlink:href="#path1129"
       x="0"
       y="0"
       width="100%"
       height="100%"
       transform="translate(-3.97246,-10.84244)" />
    <use
       id="use1608"
       inkscape:spray-origin="#path1129"
       xlink:href="#path1129"
       x="0"
       y="0"
       width="100%"
       height="100%"
       transform="translate(-1.79854,-7.29422)" />
    <use
       id="use1610"
       inkscape:spray-origin="#path1129"
       xlink:href="#path1129"
       x="0"
       y="0"
       width="100%"
       height="100%"
       transform="translate(-1.49038,-5.01566)" />
    <use
       id="use1612"
       inkscape:spray-origin="#path1129"
       xlink:href="#path1129"
       x="0"
       y="0"
       width="100%"
       height="100%"
       transform="translate(-5.41228,-5.62848)" />
    <use
       id="use1614"
       inkscape:spray-origin="#path1129"
       xlink:href="#path1129"
       x="0"
       y="0"
       width="100%"
       height="100%"
       transform="translate(-3.15802,-7.03272)" />
    <use
       id="use1616"
       inkscape:spray-origin="#path1129"
       xlink:href="#path1129"
       x="0"
       y="0"
       width="100%"
       height="100%"
       transform="translate(-3.63774,-9.37034)" />
    <use
       id="use1618"
       inkscape:spray-origin="#path1129"
       xlink:href="#path1129"
       x="0"
       y="0"
       width="100%"
       height="100%"
       transform="translate(-2.3022,-7.56876)" />
    <use
       id="use1620"
       inkscape:spray-origin="#path1129"
       xlink:href="#path1129"
       x="0"
       y="0"
       width="100%"
       height="100%"
       transform="translate(-0.74006,-5.27732)" />
    <use
       id="use1622"
       inkscape:spray-origin="#path1129"
       xlink:href="#path1129"
       x="0"
       y="0"
       width="100%"
       height="100%"
       transform="translate(-1.57894,-6.25452)" />
    <use
       id="use1624"
       inkscape:spray-origin="#path1129"
       xlink:href="#path1129"
       x="0"
       y="0"
       width="100%"
       height="100%"
       transform="translate(-3.4873,-3.34284)" />
    <use
       id="use1626"
       inkscape:spray-origin="#path1129"
       xlink:href="#path1129"
       x="0"
       y="0"
       width="100%"
       height="100%"
       transform="translate(-4.31682,-9.63014)" />
    <use
       id="use1628"
       inkscape:spray-origin="#path1129"
       xlink:href="#path1129"
       x="0"
       y="0"
       width="100%"
       height="100%"
       transform="translate(-4.58326,-7.99226)" />
    <use
       id="use1630"
       inkscape:spray-origin="#path1129"
       xlink:href="#path1129"
       x="0"
       y="0"
       width="100%"
       height="100%"
       transform="translate(-2.29798,-7.88022)" />
    <use
       id="use1632"
       inkscape:spray-origin="#path1129"
       xlink:href="#path1129"
       x="0"
       y="0"
       width="100%"
       height="100%"
       transform="translate(-3.89238,-7.48756)" />
    <use
       id="use1634"
       inkscape:spray-origin="#path1129"
       xlink:href="#path1129"
       x="0"
       y="0"
       width="100%"
       height="100%"
       transform="translate(-2.3326,-6.58738)" />
    <use
       id="use1636"
       inkscape:spray-origin="#path1129"
       xlink:href="#path1129"
       x="0"
       y="0"
       width="100%"
       height="100%"
       transform="translate(-4.06686,-4.68092)" />
    <use
       id="use1638"
       inkscape:spray-origin="#path1129"
       xlink:href="#path1129"
       x="0"
       y="0"
       width="100%"
       height="100%"
       transform="translate(-3.17062,-6.43682)" />
    <use
       id="use1640"
       inkscape:spray-origin="#path1129"
       xlink:href="#path1129"
       x="0"
       y="0"
       width="100%"
       height="100%"
       transform="translate(-3.27814,-7.1261)" />
    <use
       id="use1642"
       inkscape:spray-origin="#path1129"
       xlink:href="#path1129"
       x="0"
       y="0"
       width="100%"
       height="100%"
       transform="translate(-2.65074,-6.5373)" />
    <use
       id="use1644"
       inkscape:spray-origin="#path1129"
       xlink:href="#path1129"
       x="0"
       y="0"
       width="100%"
       height="100%"
       transform="translate(-3.7003,-6.29054)" />
    <use
       id="use1646"
       inkscape:spray-origin="#path1129"
       xlink:href="#path1129"
       x="0"
       y="0"
       width="100%"
       height="100%"
       transform="translate(-4.63672,-5.74016)" />
    <use
       id="use1648"
       inkscape:spray-origin="#path1129"
       xlink:href="#path1129"
       x="0"
       y="0"
       width="100%"
       height="100%"
       transform="translate(-6.83856,-8.22238)" />
    <use
       id="use1650"
       inkscape:spray-origin="#path1129"
       xlink:href="#path1129"
       x="0"
       y="0"
       width="100%"
       height="100%"
       transform="translate(-4.92442,-8.3733)" />
    <use
       id="use1652"
       inkscape:spray-origin="#path1129"
       xlink:href="#path1129"
       x="0"
       y="0"
       width="100%"
       height="100%"
       transform="translate(-5.89626,-7.50324)" />
    <use
       id="use1654"
       inkscape:spray-origin="#path1129"
       xlink:href="#path1129"
       x="0"
       y="0"
       width="100%"
       height="100%"
       transform="translate(-3.73262,-7.34076)" />
    <use
       id="use1656"
       inkscape:spray-origin="#path1129"
       xlink:href="#path1129"
       x="0"
       y="0"
       width="100%"
       height="100%"
       transform="translate(-5.78538,-9.10642)" />
    <use
       id="use1658"
       inkscape:spray-origin="#path1129"
       xlink:href="#path1129"
       x="0"
       y="0"
       width="100%"
       height="100%"
       transform="translate(-5.15562,-8.19584)" />
    <use
       id="use1660"
       inkscape:spray-origin="#path1129"
       xlink:href="#path1129"
       x="0"
       y="0"
       width="100%"
       height="100%"
       transform="translate(-5.77966,-9.02002)" />
    <use
       id="use1662"
       inkscape:spray-origin="#path1129"
       xlink:href="#path1129"
       x="0"
       y="0"
       width="100%"
       height="100%"
       transform="translate(-6.6318,-8.49022)" />
    <use
       id="use1664"
       inkscape:spray-origin="#path1129"
       xlink:href="#path1129"
       x="0"
       y="0"
       width="100%"
       height="100%"
       transform="translate(-6.78402,-8.21432)" />
    <use
       id="use1666"
       inkscape:spray-origin="#path1129"
       xlink:href="#path1129"
       x="0"
       y="0"
       width="100%"
       height="100%"
       transform="translate(-4.93322,-8.8169)" />
    <use
       id="use1668"
       inkscape:spray-origin="#path1129"
       xlink:href="#path1129"
       x="0"
       y="0"
       width="100%"
       height="100%"
       transform="translate(-6.7281,-7.06798)" />
    <use
       id="use1670"
       inkscape:spray-origin="#path1129"
       xlink:href="#path1129"
       x="0"
       y="0"
       width="100%"
       height="100%"
       transform="translate(-4.33456,-8.67228)" />
    <use
       id="use1672"
       inkscape:spray-origin="#path1129"
       xlink:href="#path1129"
       x="0"
       y="0"
       width="100%"
       height="100%"
       transform="translate(-5.17152,-5.45426)" />
    <use
       id="use1674"
       inkscape:spray-origin="#path1129"
       xlink:href="#path1129"
       x="0"
       y="0"
       width="100%"
       height="100%"
       transform="translate(-8.24204,-5.30878)" />
    <use
       id="use1676"
       inkscape:spray-origin="#path1129"
       xlink:href="#path1129"
       x="0"
       y="0"
       width="100%"
       height="100%"
       transform="translate(-7.19088,-9.29758)" />
    <use
       id="use1678"
       inkscape:spray-origin="#path1129"
       xlink:href="#path1129"
       x="0"
       y="0"
       width="100%"
       height="100%"
       transform="translate(-7.57666,-8.72778)" />
    <use
       id="use1680"
       inkscape:spray-origin="#path1129"
       xlink:href="#path1129"
       x="0"
       y="0"
       width="100%"
       height="100%"
       transform="translate(-7.65458,-8.65428)" />
    <use
       id="use1682"
       inkscape:spray-origin="#path1129"
       xlink:href="#path1129"
       x="0"
       y="0"
       width="100%"
       height="100%"
       transform="translate(-6.76386,-5.44604)" />
    <use
       id="use1684"
       inkscape:spray-origin="#path1129"
       xlink:href="#path1129"
       x="0"
       y="0"
       width="100%"
       height="100%"
       transform="translate(-5.10466,-0.53188)" />
    <use
       id="use1686"
       inkscape:spray-origin="#path1129"
       xlink:href="#path1129"
       x="0"
       y="0"
       width="100%"
       height="100%"
       transform="translate(-5.37828,0.95812)" />
    <use
       id="use1688"
       inkscape:spray-origin="#path1129"
       xlink:href="#path1129"
       x="0"
       y="0"
       width="100%"
       height="100%"
       transform="translate(-6.8903,2.23022)" />
    <use
       id="use1690"
       inkscape:spray-origin="#path1129"
       xlink:href="#path1129"
       x="0"
       y="0"
       width="100%"
       height="100%"
       transform="translate(-7.39544,4.26902)" />
    <use
       id="use1692"
       inkscape:spray-origin="#path1129"
       xlink:href="#path1129"
       x="0"
       y="0"
       width="100%"
       height="100%"
       transform="translate(-5.26944,6.05564)" />
    <use
       id="use1694"
       inkscape:spray-origin="#path1129"
       xlink:href="#path1129"
       x="0"
       y="0"
       width="100%"
       height="100%"
       transform="translate(-3.8198,9.10912)" />
    <use
       id="use1696"
       inkscape:spray-origin="#path1129"
       xlink:href="#path1129"
       x="0"
       y="0"
       width="100%"
       height="100%"
       transform="translate(-5.73154,8.42236)" />
    <use
       id="use1698"
       inkscape:spray-origin="#path1129"
       xlink:href="#path1129"
       x="0"
       y="0"
       width="100%"
       height="100%"
       transform="translate(-5.41646,6.2324)" />
    <use
       id="use1700"
       inkscape:spray-origin="#path1129"
       xlink:href="#path1129"
       x="0"
       y="0"
       width="100%"
       height="100%"
       transform="translate(-6.58086,6.35138)" />
    <use
       id="use1702"
       inkscape:spray-origin="#path1129"
       xlink:href="#path1129"
       x="0"
       y="0"
       width="100%"
       height="100%"
       transform="translate(-3.51872,6.9754)" />
    <use
       id="use1704"
       inkscape:spray-origin="#path1129"
       xlink:href="#path1129"
       x="0"
       y="0"
       width="100%"
       height="100%"
       transform="translate(-4.25184,6.9345)" />
    <use
       id="use1706"
       inkscape:spray-origin="#path1129"
       xlink:href="#path1129"
       x="0"
       y="0"
       width="100%"
       height="100%"
       transform="translate(-4.11854,8.6513)" />
    <use
       id="use1708"
       inkscape:spray-origin="#path1129"
       xlink:href="#path1129"
       x="0"
       y="0"
       width="100%"
       height="100%"
       transform="translate(-5.49918,8.07058)" />
    <use
       id="use1710"
       inkscape:spray-origin="#path1129"
       xlink:href="#path1129"
       x="0"
       y="0"
       width="100%"
       height="100%"
       transform="translate(-6.04458,5.44228)" />
    <use
       id="use1712"
       inkscape:spray-origin="#path1129"
       xlink:href="#path1129"
       x="0"
       y="0"
       width="100%"
       height="100%"
       transform="translate(-5.21342,3.49038)" />
    <use
       id="use1714"
       inkscape:spray-origin="#path1129"
       xlink:href="#path1129"
       x="0"
       y="0"
       width="100%"
       height="100%"
       transform="translate(-4.61166,9.16042)" />
    <use
       id="use1716"
       inkscape:spray-origin="#path1129"
       xlink:href="#path1129"
       x="0"
       y="0"
       width="100%"
       height="100%"
       transform="translate(-6.05292,9.12254)" />
    <use
       id="use1718"
       inkscape:spray-origin="#path1129"
       xlink:href="#path1129"
       x="0"
       y="0"
       width="100%"
       height="100%"
       transform="translate(-4.99328,7.98966)" />
    <use
       id="use1720"
       inkscape:spray-origin="#path1129"
       xlink:href="#path1129"
       x="0"
       y="0"
       width="100%"
       height="100%"
       transform="translate(-8.98716,8.52172)" />
    <use
       id="use1722"
       inkscape:spray-origin="#path1129"
       xlink:href="#path1129"
       x="0"
       y="0"
       width="100%"
       height="100%"
       transform="translate(-6.33328,6.10786)" />
    <use
       id="use1724"
       inkscape:spray-origin="#path1129"
       xlink:href="#path1129"
       x="0"
       y="0"
       width="100%"
       height="100%"
       transform="translate(-2.71592,5.68078)" />
    <use
       id="use1726"
       inkscape:spray-origin="#path1129"
       xlink:href="#path1129"
       x="0"
       y="0"
       width="100%"
       height="100%"
       transform="translate(1.90048,6.02226)" />
    <use
       id="use1728"
       inkscape:spray-origin="#path1129"
       xlink:href="#path1129"
       x="0"
       y="0"
       width="100%"
       height="100%"
       transform="translate(2.42494,8.27396)" />
    <use
       id="use1730"
       inkscape:spray-origin="#path1129"
       xlink:href="#path1129"
       x="0"
       y="0"
       width="100%"
       height="100%"
       transform="translate(-0.60258,10.44602)" />
    <use
       id="use1732"
       inkscape:spray-origin="#path1129"
       xlink:href="#path1129"
       x="0"
       y="0"
       width="100%"
       height="100%"
       transform="translate(-2.75142,3.83622)" />
    <use
       id="use1734"
       inkscape:spray-origin="#path1129"
       xlink:href="#path1129"
       x="0"
       y="0"
       width="100%"
       height="100%"
       transform="translate(-1.8948,2.01516)" />
    <use
       id="use1736"
       inkscape:spray-origin="#path1129"
       xlink:href="#path1129"
       x="0"
       y="0"
       width="100%"
       height="100%"
       transform="translate(1.5591,2.28716)" />
    <use
       id="use1738"
       inkscape:spray-origin="#path1129"
       xlink:href="#path1129"
       x="0"
       y="0"
       width="100%"
       height="100%"
       transform="translate(3.88576,4.90492)" />
    <use
       id="use1740"
       inkscape:spray-origin="#path1129"
       xlink:href="#path1129"
       x="0"
       y="0"
       width="100%"
       height="100%"
       transform="translate(-1.2963,7.49652)" />
    <use
       id="use1742"
       inkscape:spray-origin="#path1129"
       xlink:href="#path1129"
       x="0"
       y="0"
       width="100%"
       height="100%"
       transform="translate(-3.8026,6.42778)" />
    <use
       id="use1744"
       inkscape:spray-origin="#path1129"
       xlink:href="#path1129"
       x="0"
       y="0"
       width="100%"
       height="100%"
       transform="translate(-3.65246,3.79674)" />
    <use
       id="use1746"
       inkscape:spray-origin="#path1129"
       xlink:href="#path1129"
       x="0"
       y="0"
       width="100%"
       height="100%"
       transform="translate(-0.39574,1.6574)" />
    <use
       id="use1748"
       inkscape:spray-origin="#path1129"
       xlink:href="#path1129"
       x="0"
       y="0"
       width="100%"
       height="100%"
       transform="translate(6.14486,2.7516)" />
    <use
       id="use1750"
       inkscape:spray-origin="#path1129"
       xlink:href="#path1129"
       x="0"
       y="0"
       width="100%"
       height="100%"
       transform="translate(2.06322,6.31596)" />
    <use
       id="use1752"
       inkscape:spray-origin="#path1129"
       xlink:href="#path1129"
       x="0"
       y="0"
       width="100%"
       height="100%"
       transform="translate(-1.70198,5.16226)" />
    <use
       id="use1754"
       inkscape:spray-origin="#path1129"
       xlink:href="#path1129"
       x="0"
       y="0"
       width="100%"
       height="100%"
       transform="translate(-1.09602,1.63204)" />
    <use
       id="use1756"
       inkscape:spray-origin="#path1129"
       xlink:href="#path1129"
       x="0"
       y="0"
       width="100%"
       height="100%"
       transform="translate(-0.3945,1.5885)" />
    <use
       id="use1758"
       inkscape:spray-origin="#path1129"
       xlink:href="#path1129"
       x="0"
       y="0"
       width="100%"
       height="100%"
       transform="translate(-0.63674,-1.16422)" />
    <use
       id="use1760"
       inkscape:spray-origin="#path1129"
       xlink:href="#path1129"
       x="0"
       y="0"
       width="100%"
       height="100%"
       transform="translate(1.79986,1.03682)" />
    <use
       id="use1762"
       inkscape:spray-origin="#path1129"
       xlink:href="#path1129"
       x="0"
       y="0"
       width="100%"
       height="100%"
       transform="translate(-0.69156,2.45328)" />
  </g>
  <metadata
     id="metadata4742">
    <rdf:RDF>
      <cc:Work
         rdf:about="">
        <dc:title>peep-46</dc:title>
      </cc:Work>
    </rdf:RDF>
  </metadata>
</svg>
